<?xml version="1.0" standalone="no"?><svg xmlns:xlink="http://www.w3.org/1999/xlink" xmlns="http://www.w3.org/2000/svg" viewBox="0 0 1000 1000" preserveAspectRatio="xMaxYMax slice"><g transform="scale(2.254283137962128)"><rect x="0" y="0" width="443.6" height="443.6" fill="#ffffff"/><rect x="0" y="0" width="36.97" height="36.97" fill="#ffffff"/><g transform="translate(0,0) scale(1.8485) rotate(0)"><path d="M10 5L5 0L0 5L5 10L0 15L5 20L10 15L15 20L20 15L15 10L20 5L15 0L10 5Z" fill="#9edffc"/></g><rect x="36.96666666666667" y="0" width="36.96666666666667" height="36.96666666666667" fill="#ffffff"/><rect x="36.97" y="0" width="18.48" height="18.48" fill="#4ac3f9"/><g transform="translate(36.97,0) scale(0.924) rotate(0)"><path d="M13 0H20V7L7 20H0V13L13 0Z" fill="#cdeefd"/></g><rect x="55.45" y="0" width="18.48" height="18.48" fill="#c6f4fb"/><g transform="translate(55.45,0) scale(0.924) rotate(0)"><path d="M10 5L5 0L0 5L5 10L0 15L5 20L10 15L15 20L20 15L15 10L20 5L15 0L10 5Z" fill="#ffffff"/></g><rect x="55.45" y="18.48" width="18.48" height="18.48" fill="#a9e2fc"/><g transform="translate(55.45,18.48) scale(0.924) rotate(0)"><path d="M5 0H10L5 5L0 10V5L5 0Z" fill="#ffffff"/><path d="M20 15V20H15L20 15Z" fill="#ffffff"/><path d="M20 5V10L15 15L10 20H5L20 5Z" fill="#ffffff"/><path d="M15 0H20L5 15.0002L0 20.0002V15.0002L15 0Z" fill="#ffffff"/></g><rect x="110.9" y="0" width="36.96666666666667" height="36.96666666666667" fill="#ffffff"/><rect x="110.9" y="18.48" width="18.48" height="18.48" fill="#ffffff"/><g transform="translate(110.9,18.48) scale(0.924) rotate(0)"><path d="M5 0H10L5 5L0 10V5L5 0Z" fill="#97eaf7"/><path d="M20 15V20H15L20 15Z" fill="#97eaf7"/><path d="M20 5V10L15 15L10 20H5L20 5Z" fill="#97eaf7"/><path d="M15 0H20L5 15.0002L0 20.0002V15.0002L15 0Z" fill="#97eaf7"/></g><rect x="184.83333333333334" y="0" width="36.96666666666667" height="36.96666666666667" fill="#ffffff"/><rect x="184.83" y="0" width="18.48" height="18.48" fill="#c6ecfd"/><g transform="translate(184.83,0) scale(0.924) rotate(0)"><path d="M13 0H20V7L7 20H0V13L13 0Z" fill="#ffffff"/></g><rect x="203.32" y="0" width="18.48" height="18.48" fill="#cff5fb"/><g transform="translate(203.32,0) scale(0.924) rotate(0)"><rect width="2" height="20" fill="#ffffff"/><rect x="4" width="2" height="20" fill="#ffffff"/><rect x="8" width="2" height="20" fill="#ffffff"/><rect x="12" width="2" height="20" fill="#ffffff"/><rect x="16" width="2" height="20" fill="#ffffff"/></g><rect x="184.83" y="18.48" width="18.48" height="18.48" fill="#c5ecfd"/><g transform="translate(184.83,18.48) scale(0.924) rotate(0)"><path d="M10 5L5 0L0 5L5 10L0 15L5 20L10 15L15 20L20 15L15 10L20 5L15 0L10 5Z" fill="#ffffff"/></g><rect x="203.32" y="18.48" width="18.48" height="18.48" fill="#a3e1fc"/><g transform="translate(203.32,18.48) scale(0.924) rotate(0)"><path d="M13 0H20V7L7 20H0V13L13 0Z" fill="#ffffff"/></g><rect x="295.73333333333335" y="0" width="36.96666666666667" height="36.96666666666667" fill="#ffffff"/><rect x="295.73" y="0" width="18.48" height="18.48" fill="#ddfafe"/><g transform="translate(295.73,0) scale(0.924) rotate(0)"><rect width="2" height="20" fill="#ffffff"/><rect x="4" width="2" height="20" fill="#ffffff"/><rect x="8" width="2" height="20" fill="#ffffff"/><rect x="12" width="2" height="20" fill="#ffffff"/><rect x="16" width="2" height="20" fill="#ffffff"/></g><rect x="314.22" y="0" width="18.48" height="18.48" fill="#52c6f9"/><g transform="translate(314.22,0) scale(0.924) rotate(0)"><path d="M10 0H20V10L10 20H0V10L10 0Z" fill="#ffffff"/></g><rect x="295.73" y="18.48" width="18.48" height="18.48" fill="#2ed5ef"/><g transform="translate(295.73,18.48) scale(0.924) rotate(0)"><path d="M5 0H10L5 5L0 10V5L5 0Z" fill="#ffffff"/><path d="M20 15V20H15L20 15Z" fill="#ffffff"/><path d="M20 5V10L15 15L10 20H5L20 5Z" fill="#ffffff"/><path d="M15 0H20L5 15.0002L0 20.0002V15.0002L15 0Z" fill="#ffffff"/></g><rect x="314.22" y="18.48" width="18.48" height="18.48" fill="#ffffff"/><g transform="translate(314.22,18.48) scale(0.924) rotate(0)"><path d="M5 0H10L5 5L0 10V5L5 0Z" fill="#c7f6fd"/><path d="M20 15V20H15L20 15Z" fill="#c7f6fd"/><path d="M20 5V10L15 15L10 20H5L20 5Z" fill="#c7f6fd"/><path d="M15 0H20L5 15.0002L0 20.0002V15.0002L15 0Z" fill="#c7f6fd"/></g><rect x="332.7" y="0" width="36.97" height="36.97" fill="#4cdbf1"/><g transform="translate(332.7,0) scale(1.8485) rotate(0)"><rect width="2" height="20" fill="#edfbfe"/><rect x="4" width="2" height="20" fill="#edfbfe"/><rect x="8" width="2" height="20" fill="#edfbfe"/><rect x="12" width="2" height="20" fill="#edfbfe"/><rect x="16" width="2" height="20" fill="#edfbfe"/></g><rect x="369.67" y="0" width="36.97" height="36.97" fill="#e1fafe"/><g transform="translate(369.67,0) scale(1.8485) rotate(0)"><rect width="2" height="20" fill="#ffffff"/><rect x="4" width="2" height="20" fill="#ffffff"/><rect x="8" width="2" height="20" fill="#ffffff"/><rect x="12" width="2" height="20" fill="#ffffff"/><rect x="16" width="2" height="20" fill="#ffffff"/></g><rect x="406.63" y="0" width="36.97" height="36.97" fill="#ffffff"/><g transform="translate(406.63,0) scale(1.8485) rotate(0)"><rect width="2" height="20" fill="#c8edfd"/><rect x="4" width="2" height="20" fill="#c8edfd"/><rect x="8" width="2" height="20" fill="#c8edfd"/><rect x="12" width="2" height="20" fill="#c8edfd"/><rect x="16" width="2" height="20" fill="#c8edfd"/></g><rect x="0" y="36.96666666666667" width="36.96666666666667" height="36.96666666666667" fill="#ffffff"/><rect x="0" y="36.97" width="18.48" height="18.48" fill="#ffffff"/><g transform="translate(0,36.97) scale(0.924) rotate(0)"><path d="M5 0H10L5 5L0 10V5L5 0Z" fill="#c1ebfd"/><path d="M20 15V20H15L20 15Z" fill="#c1ebfd"/><path d="M20 5V10L15 15L10 20H5L20 5Z" fill="#c1ebfd"/><path d="M15 0H20L5 15.0002L0 20.0002V15.0002L15 0Z" fill="#c1ebfd"/></g><rect x="18.48" y="36.97" width="18.48" height="18.48" fill="#ffffff"/><g transform="translate(18.48,36.97) scale(0.924) rotate(0)"><path d="M13 0H20V7L7 20H0V13L13 0Z" fill="#7be5f5"/></g><rect x="0" y="55.45" width="18.48" height="18.48" fill="#4bdbf1"/><g transform="translate(0,55.45) scale(0.924) rotate(0)"><path d="M10 0H20V10L10 20H0V10L10 0Z" fill="#70e2f4"/></g><rect x="18.48" y="55.45" width="18.48" height="18.48" fill="#ffffff"/><g transform="translate(18.48,55.45) scale(0.924) rotate(0)"><path d="M10 5L5 0L0 5L5 10L0 15L5 20L10 15L15 20L20 15L15 10L20 5L15 0L10 5Z" fill="#ffffff"/></g><rect x="73.93333333333334" y="36.96666666666667" width="36.96666666666667" height="36.96666666666667" fill="#ffffff"/><rect x="73.93" y="36.97" width="18.48" height="18.48" fill="#ffffff"/><g transform="translate(73.93,36.97) scale(0.924) rotate(0)"><path d="M5 0H10L5 5L0 10V5L5 0Z" fill="#acf2fc"/><path d="M20 15V20H15L20 15Z" fill="#acf2fc"/><path d="M20 5V10L15 15L10 20H5L20 5Z" fill="#acf2fc"/><path d="M15 0H20L5 15.0002L0 20.0002V15.0002L15 0Z" fill="#acf2fc"/></g><rect x="92.42" y="36.97" width="18.48" height="18.48" fill="#8cd9fb"/><g transform="translate(92.42,36.97) scale(0.924) rotate(0)"><rect width="2" height="20" fill="#84d6fb"/><rect x="4" width="2" height="20" fill="#84d6fb"/><rect x="8" width="2" height="20" fill="#84d6fb"/><rect x="12" width="2" height="20" fill="#84d6fb"/><rect x="16" width="2" height="20" fill="#84d6fb"/></g><rect x="73.93" y="55.45" width="18.48" height="18.48" fill="#e2f9fd"/><g transform="translate(73.93,55.45) scale(0.924) rotate(0)"><path d="M10 5L5 0L0 5L5 10L0 15L5 20L10 15L15 20L20 15L15 10L20 5L15 0L10 5Z" fill="#b4e6fc"/></g><rect x="92.42" y="55.45" width="18.48" height="18.48" fill="#6ce9f9"/><g transform="translate(92.42,55.45) scale(0.924) rotate(0)"><rect width="2" height="20" fill="#58def2"/><rect x="4" width="2" height="20" fill="#58def2"/><rect x="8" width="2" height="20" fill="#58def2"/><rect x="12" width="2" height="20" fill="#58def2"/><rect x="16" width="2" height="20" fill="#58def2"/></g><rect x="110.9" y="36.97" width="36.97" height="36.97" fill="#ffffff"/><g transform="translate(110.9,36.97) scale(1.8485) rotate(0)"><path d="M10 5L5 0L0 5L5 10L0 15L5 20L10 15L15 20L20 15L15 10L20 5L15 0L10 5Z" fill="#ffffff"/></g><rect x="147.87" y="36.97" width="36.97" height="36.97" fill="#ffffff"/><g transform="translate(147.87,36.97) scale(1.8485) rotate(0)"><path d="M10 0H20V10L10 20H0V10L10 0Z" fill="#87edfa"/></g><rect x="221.8" y="36.96666666666667" width="36.96666666666667" height="36.96666666666667" fill="#ffffff"/><rect x="221.8" y="36.97" width="18.48" height="18.48" fill="#a9e3fc"/><g transform="translate(221.8,36.97) scale(0.924) rotate(0)"><path d="M13 0H20V7L7 20H0V13L13 0Z" fill="#a7e2fc"/></g><rect x="240.28" y="55.45" width="18.48" height="18.48" fill="#ffffff"/><g transform="translate(240.28,55.45) scale(0.924) rotate(0)"><rect width="2" height="20" fill="#ffffff"/><rect x="4" width="2" height="20" fill="#ffffff"/><rect x="8" width="2" height="20" fill="#ffffff"/><rect x="12" width="2" height="20" fill="#ffffff"/><rect x="16" width="2" height="20" fill="#ffffff"/></g><rect x="258.76666666666665" y="36.96666666666667" width="36.96666666666667" height="36.96666666666667" fill="#ffffff"/><rect x="277.25" y="36.97" width="18.48" height="18.48" fill="#6de2f4"/><g transform="translate(277.25,36.97) scale(0.924) rotate(0)"><rect width="2" height="20" fill="#d8f2fe"/><rect x="4" width="2" height="20" fill="#d8f2fe"/><rect x="8" width="2" height="20" fill="#d8f2fe"/><rect x="12" width="2" height="20" fill="#d8f2fe"/><rect x="16" width="2" height="20" fill="#d8f2fe"/></g><rect x="258.77" y="55.45" width="18.48" height="18.48" fill="#e9fcfe"/><g transform="translate(258.77,55.45) scale(0.924) rotate(0)"><rect width="2" height="20" fill="#ffffff"/><rect x="4" width="2" height="20" fill="#ffffff"/><rect x="8" width="2" height="20" fill="#ffffff"/><rect x="12" width="2" height="20" fill="#ffffff"/><rect x="16" width="2" height="20" fill="#ffffff"/></g><rect x="277.25" y="55.45" width="18.48" height="18.48" fill="#84e6f6"/><g transform="translate(277.25,55.45) scale(0.924) rotate(0)"><path d="M10 0H20V10L10 20H0V10L10 0Z" fill="#87e7f6"/></g><rect x="406.63" y="36.97" width="36.97" height="36.97" fill="#70e3f4"/><g transform="translate(406.63,36.97) scale(1.8485) rotate(0)"><path d="M10 5L5 0L0 5L5 10L0 15L5 20L10 15L15 20L20 15L15 10L20 5L15 0L10 5Z" fill="#6de9f9"/></g><rect x="73.93" y="73.93" width="36.97" height="36.97" fill="#ffffff"/><g transform="translate(73.93,73.93) scale(1.8485) rotate(0)"><path d="M10 0H20V10L10 20H0V10L10 0Z" fill="#43c1f8"/></g><rect x="110.9" y="73.93" width="36.97" height="36.97" fill="#f2fcfe"/><g transform="translate(110.9,73.93) scale(1.8485) rotate(0)"><path d="M10 5L5 0L0 5L5 10L0 15L5 20L10 15L15 20L20 15L15 10L20 5L15 0L10 5Z" fill="#e3f6fe"/></g><rect x="147.87" y="73.93" width="36.97" height="36.97" fill="#a1f1fb"/><g transform="translate(147.87,73.93) scale(1.8485) rotate(0)"><path d="M5 0H10L5 5L0 10V5L5 0Z" fill="#ffffff"/><path d="M20 15V20H15L20 15Z" fill="#ffffff"/><path d="M20 5V10L15 15L10 20H5L20 5Z" fill="#ffffff"/><path d="M15 0H20L5 15.0002L0 20.0002V15.0002L15 0Z" fill="#ffffff"/></g><rect x="184.83" y="73.93" width="36.97" height="36.97" fill="#e5f6fe"/><g transform="translate(184.83,73.93) scale(1.8485) rotate(0)"><rect width="2" height="20" fill="#ffffff"/><rect x="4" width="2" height="20" fill="#ffffff"/><rect x="8" width="2" height="20" fill="#ffffff"/><rect x="12" width="2" height="20" fill="#ffffff"/><rect x="16" width="2" height="20" fill="#ffffff"/></g><rect x="221.8" y="73.93333333333334" width="36.96666666666667" height="36.96666666666667" fill="#ffffff"/><rect x="221.8" y="73.93" width="18.48" height="18.48" fill="#ffffff"/><g transform="translate(221.8,73.93) scale(0.924) rotate(0)"><path d="M13 0H20V7L7 20H0V13L13 0Z" fill="#70e9f9"/></g><rect x="221.8" y="92.42" width="18.48" height="18.48" fill="#ffffff"/><g transform="translate(221.8,92.42) scale(0.924) rotate(0)"><path d="M13 0H20V7L7 20H0V13L13 0Z" fill="#ffffff"/></g><rect x="240.28" y="92.42" width="18.48" height="18.48" fill="#8deefb"/><g transform="translate(240.28,92.42) scale(0.924) rotate(0)"><path d="M13 0H20V7L7 20H0V13L13 0Z" fill="#81d5fb"/></g><rect x="258.76666666666665" y="73.93333333333334" width="36.96666666666667" height="36.96666666666667" fill="#ffffff"/><rect x="258.77" y="73.93" width="18.48" height="18.48" fill="#ffffff"/><g transform="translate(258.77,73.93) scale(0.924) rotate(0)"><path d="M13 0H20V7L7 20H0V13L13 0Z" fill="#a7f2fc"/></g><rect x="258.77" y="92.42" width="18.48" height="18.48" fill="#25d4ee"/><g transform="translate(258.77,92.42) scale(0.924) rotate(0)"><rect width="2" height="20" fill="#ffffff"/><rect x="4" width="2" height="20" fill="#ffffff"/><rect x="8" width="2" height="20" fill="#ffffff"/><rect x="12" width="2" height="20" fill="#ffffff"/><rect x="16" width="2" height="20" fill="#ffffff"/></g><rect x="277.25" y="92.42" width="18.48" height="18.48" fill="#ffffff"/><g transform="translate(277.25,92.42) scale(0.924) rotate(0)"><path d="M5 0H10L5 5L0 10V5L5 0Z" fill="#ffffff"/><path d="M20 15V20H15L20 15Z" fill="#ffffff"/><path d="M20 5V10L15 15L10 20H5L20 5Z" fill="#ffffff"/><path d="M15 0H20L5 15.0002L0 20.0002V15.0002L15 0Z" fill="#ffffff"/></g><rect x="295.73" y="73.93" width="36.97" height="36.97" fill="#ffffff"/><g transform="translate(295.73,73.93) scale(1.8485) rotate(0)"><rect width="2" height="20" fill="#ffffff"/><rect x="4" width="2" height="20" fill="#ffffff"/><rect x="8" width="2" height="20" fill="#ffffff"/><rect x="12" width="2" height="20" fill="#ffffff"/><rect x="16" width="2" height="20" fill="#ffffff"/></g><rect x="332.70000000000005" y="73.93333333333334" width="36.96666666666667" height="36.96666666666667" fill="#ffffff"/><rect x="332.7" y="73.93" width="18.48" height="18.48" fill="#ffffff"/><g transform="translate(332.7,73.93) scale(0.924) rotate(0)"><path d="M10 5L5 0L0 5L5 10L0 15L5 20L10 15L15 20L20 15L15 10L20 5L15 0L10 5Z" fill="#6fe9f9"/></g><rect x="351.18" y="73.93" width="18.48" height="18.48" fill="#ceeffd"/><g transform="translate(351.18,73.93) scale(0.924) rotate(0)"><path d="M5 0H10L5 5L0 10V5L5 0Z" fill="#4fdcf1"/><path d="M20 15V20H15L20 15Z" fill="#4fdcf1"/><path d="M20 5V10L15 15L10 20H5L20 5Z" fill="#4fdcf1"/><path d="M15 0H20L5 15.0002L0 20.0002V15.0002L15 0Z" fill="#4fdcf1"/></g><rect x="332.7" y="92.42" width="18.48" height="18.48" fill="#53ddf2"/><g transform="translate(332.7,92.42) scale(0.924) rotate(0)"><path d="M10 5L5 0L0 5L5 10L0 15L5 20L10 15L15 20L20 15L15 10L20 5L15 0L10 5Z" fill="#78ebfa"/></g><rect x="369.6666666666667" y="73.93333333333334" width="36.96666666666667" height="36.96666666666667" fill="#ffffff"/><rect x="369.67" y="73.93" width="18.48" height="18.48" fill="#ffffff"/><g transform="translate(369.67,73.93) scale(0.924) rotate(0)"><path d="M5 0H10L5 5L0 10V5L5 0Z" fill="#a3f1fb"/><path d="M20 15V20H15L20 15Z" fill="#a3f1fb"/><path d="M20 5V10L15 15L10 20H5L20 5Z" fill="#a3f1fb"/><path d="M15 0H20L5 15.0002L0 20.0002V15.0002L15 0Z" fill="#a3f1fb"/></g><rect x="388.15" y="73.93" width="18.48" height="18.48" fill="#ffffff"/><g transform="translate(388.15,73.93) scale(0.924) rotate(0)"><rect width="2" height="20" fill="#ffffff"/><rect x="4" width="2" height="20" fill="#ffffff"/><rect x="8" width="2" height="20" fill="#ffffff"/><rect x="12" width="2" height="20" fill="#ffffff"/><rect x="16" width="2" height="20" fill="#ffffff"/></g><rect x="369.67" y="92.42" width="18.48" height="18.48" fill="#ffffff"/><g transform="translate(369.67,92.42) scale(0.924) rotate(0)"><path d="M10 5L5 0L0 5L5 10L0 15L5 20L10 15L15 20L20 15L15 10L20 5L15 0L10 5Z" fill="#77d2fa"/></g><rect x="388.15" y="92.42" width="18.48" height="18.48" fill="#ffffff"/><g transform="translate(388.15,92.42) scale(0.924) rotate(0)"><rect width="2" height="20" fill="#59c8f9"/><rect x="4" width="2" height="20" fill="#59c8f9"/><rect x="8" width="2" height="20" fill="#59c8f9"/><rect x="12" width="2" height="20" fill="#59c8f9"/><rect x="16" width="2" height="20" fill="#59c8f9"/></g><rect x="406.6333333333333" y="73.93333333333334" width="36.96666666666667" height="36.96666666666667" fill="#ffffff"/><rect x="406.63" y="73.93" width="18.48" height="18.48" fill="#47daf1"/><g transform="translate(406.63,73.93) scale(0.924) rotate(0)"><path d="M10 5L5 0L0 5L5 10L0 15L5 20L10 15L15 20L20 15L15 10L20 5L15 0L10 5Z" fill="#9decf7"/></g><rect x="425.12" y="73.93" width="18.48" height="18.48" fill="#ffffff"/><g transform="translate(425.12,73.93) scale(0.924) rotate(0)"><path d="M10 0H20V10L10 20H0V10L10 0Z" fill="#ffffff"/></g><rect x="406.63" y="92.42" width="18.48" height="18.48" fill="#ffffff"/><g transform="translate(406.63,92.42) scale(0.924) rotate(0)"><path d="M10 0H20V10L10 20H0V10L10 0Z" fill="#e0f5fe"/></g><rect x="0" y="110.9" width="36.96666666666667" height="36.96666666666667" fill="#ffffff"/><rect x="18.48" y="110.9" width="18.48" height="18.48" fill="#ceeffd"/><g transform="translate(18.48,110.9) scale(0.924) rotate(0)"><path d="M10 0H20V10L10 20H0V10L10 0Z" fill="#b7e7fc"/></g><rect x="0" y="129.38" width="18.48" height="18.48" fill="#86e7f6"/><g transform="translate(0,129.38) scale(0.924) rotate(0)"><path d="M10 5L5 0L0 5L5 10L0 15L5 20L10 15L15 20L20 15L15 10L20 5L15 0L10 5Z" fill="#a1f1fb"/></g><rect x="18.48" y="129.38" width="18.48" height="18.48" fill="#c9f7fd"/><g transform="translate(18.48,129.38) scale(0.924) rotate(0)"><rect width="2" height="20" fill="#edfbfe"/><rect x="4" width="2" height="20" fill="#edfbfe"/><rect x="8" width="2" height="20" fill="#edfbfe"/><rect x="12" width="2" height="20" fill="#edfbfe"/><rect x="16" width="2" height="20" fill="#edfbfe"/></g><rect x="36.96666666666667" y="110.9" width="36.96666666666667" height="36.96666666666667" fill="#ffffff"/><rect x="36.97" y="110.9" width="18.48" height="18.48" fill="#d0effd"/><g transform="translate(36.97,110.9) scale(0.924) rotate(0)"><path d="M10 0H20V10L10 20H0V10L10 0Z" fill="#ffffff"/></g><rect x="55.45" y="110.9" width="18.48" height="18.48" fill="#8fe9f6"/><g transform="translate(55.45,110.9) scale(0.924) rotate(0)"><path d="M10 0H20V10L10 20H0V10L10 0Z" fill="#defafe"/></g><rect x="55.45" y="129.38" width="18.48" height="18.48" fill="#ffffff"/><g transform="translate(55.45,129.38) scale(0.924) rotate(0)"><path d="M10 5L5 0L0 5L5 10L0 15L5 20L10 15L15 20L20 15L15 10L20 5L15 0L10 5Z" fill="#ffffff"/></g><rect x="73.93333333333334" y="110.9" width="36.96666666666667" height="36.96666666666667" fill="#ffffff"/><rect x="73.93" y="110.9" width="18.48" height="18.48" fill="#f2fdfe"/><g transform="translate(73.93,110.9) scale(0.924) rotate(0)"><path d="M13 0H20V7L7 20H0V13L13 0Z" fill="#effafe"/></g><rect x="92.42" y="110.9" width="18.48" height="18.48" fill="#7fd5fa"/><g transform="translate(92.42,110.9) scale(0.924) rotate(0)"><path d="M10 0H20V10L10 20H0V10L10 0Z" fill="#7debfa"/></g><rect x="73.93" y="129.38" width="18.48" height="18.48" fill="#b7f4fc"/><g transform="translate(73.93,129.38) scale(0.924) rotate(0)"><path d="M10 0H20V10L10 20H0V10L10 0Z" fill="#76d2fa"/></g><rect x="92.42" y="129.38" width="18.48" height="18.48" fill="#ffffff"/><g transform="translate(92.42,129.38) scale(0.924) rotate(0)"><path d="M13 0H20V7L7 20H0V13L13 0Z" fill="#b2e5fc"/></g><rect x="147.86666666666667" y="110.9" width="36.96666666666667" height="36.96666666666667" fill="#ffffff"/><rect x="147.87" y="129.38" width="18.48" height="18.48" fill="#ffffff"/><g transform="translate(147.87,129.38) scale(0.924) rotate(0)"><path d="M5 0H10L5 5L0 10V5L5 0Z" fill="#d3f6fc"/><path d="M20 15V20H15L20 15Z" fill="#d3f6fc"/><path d="M20 5V10L15 15L10 20H5L20 5Z" fill="#d3f6fc"/><path d="M15 0H20L5 15.0002L0 20.0002V15.0002L15 0Z" fill="#d3f6fc"/></g><rect x="166.35" y="129.38" width="18.48" height="18.48" fill="#ffffff"/><g transform="translate(166.35,129.38) scale(0.924) rotate(0)"><rect width="2" height="20" fill="#ffffff"/><rect x="4" width="2" height="20" fill="#ffffff"/><rect x="8" width="2" height="20" fill="#ffffff"/><rect x="12" width="2" height="20" fill="#ffffff"/><rect x="16" width="2" height="20" fill="#ffffff"/></g><rect x="221.8" y="110.9" width="36.96666666666667" height="36.96666666666667" fill="#ffffff"/><rect x="221.8" y="110.9" width="18.48" height="18.48" fill="#b0eff9"/><g transform="translate(221.8,110.9) scale(0.924) rotate(0)"><path d="M10 5L5 0L0 5L5 10L0 15L5 20L10 15L15 20L20 15L15 10L20 5L15 0L10 5Z" fill="#e7fafd"/></g><rect x="240.28" y="110.9" width="18.48" height="18.48" fill="#c2ebfd"/><g transform="translate(240.28,110.9) scale(0.924) rotate(0)"><path d="M10 0H20V10L10 20H0V10L10 0Z" fill="#d8f9fd"/></g><rect x="240.28" y="129.38" width="18.48" height="18.48" fill="#90dafb"/><g transform="translate(240.28,129.38) scale(0.924) rotate(0)"><path d="M13 0H20V7L7 20H0V13L13 0Z" fill="#5bc8f9"/></g><rect x="295.73" y="110.9" width="36.97" height="36.97" fill="#ebfbfd"/><g transform="translate(295.73,110.9) scale(1.8485) rotate(0)"><path d="M10 5L5 0L0 5L5 10L0 15L5 20L10 15L15 20L20 15L15 10L20 5L15 0L10 5Z" fill="#ffffff"/></g><rect x="332.7" y="110.9" width="36.97" height="36.97" fill="#ffffff"/><g transform="translate(332.7,110.9) scale(1.8485) rotate(0)"><path d="M13 0H20V7L7 20H0V13L13 0Z" fill="#80ecfa"/></g><rect x="369.67" y="110.9" width="36.97" height="36.97" fill="#ffffff"/><g transform="translate(369.67,110.9) scale(1.8485) rotate(0)"><path d="M10 0H20V10L10 20H0V10L10 0Z" fill="#ffffff"/></g><rect x="406.63" y="110.9" width="36.97" height="36.97" fill="#93dbfb"/><g transform="translate(406.63,110.9) scale(1.8485) rotate(0)"><path d="M13 0H20V7L7 20H0V13L13 0Z" fill="#4ec4f9"/></g><rect x="0" y="147.87" width="36.97" height="36.97" fill="#7dd4fa"/><g transform="translate(0,147.87) scale(1.8485) rotate(0)"><rect width="2" height="20" fill="#e4f6fe"/><rect x="4" width="2" height="20" fill="#e4f6fe"/><rect x="8" width="2" height="20" fill="#e4f6fe"/><rect x="12" width="2" height="20" fill="#e4f6fe"/><rect x="16" width="2" height="20" fill="#e4f6fe"/></g><rect x="36.97" y="147.87" width="36.97" height="36.97" fill="#b6f0f9"/><g transform="translate(36.97,147.87) scale(1.8485) rotate(0)"><path d="M13 0H20V7L7 20H0V13L13 0Z" fill="#ffffff"/></g><rect x="73.93333333333334" y="147.86666666666667" width="36.96666666666667" height="36.96666666666667" fill="#ffffff"/><rect x="73.93" y="147.87" width="18.48" height="18.48" fill="#ffffff"/><g transform="translate(73.93,147.87) scale(0.924) rotate(0)"><path d="M13 0H20V7L7 20H0V13L13 0Z" fill="#88edfa"/></g><rect x="92.42" y="147.87" width="18.48" height="18.48" fill="#ffffff"/><g transform="translate(92.42,147.87) scale(0.924) rotate(0)"><path d="M13 0H20V7L7 20H0V13L13 0Z" fill="#7aebfa"/></g><rect x="92.42" y="166.35" width="18.48" height="18.48" fill="#c0f5fd"/><g transform="translate(92.42,166.35) scale(0.924) rotate(0)"><path d="M13 0H20V7L7 20H0V13L13 0Z" fill="#50c5f9"/></g><rect x="110.9" y="147.87" width="36.97" height="36.97" fill="#25d4ee"/><g transform="translate(110.9,147.87) scale(1.8485) rotate(0)"><path d="M10 0H20V10L10 20H0V10L10 0Z" fill="#9addfb"/></g><rect x="147.86666666666667" y="147.86666666666667" width="36.96666666666667" height="36.96666666666667" fill="#ffffff"/><rect x="147.87" y="147.87" width="18.48" height="18.48" fill="#ffffff"/><g transform="translate(147.87,147.87) scale(0.924) rotate(0)"><path d="M10 5L5 0L0 5L5 10L0 15L5 20L10 15L15 20L20 15L15 10L20 5L15 0L10 5Z" fill="#fafeff"/></g><rect x="166.35" y="147.87" width="18.48" height="18.48" fill="#ffffff"/><g transform="translate(166.35,147.87) scale(0.924) rotate(0)"><path d="M13 0H20V7L7 20H0V13L13 0Z" fill="#ffffff"/></g><rect x="166.35" y="166.35" width="18.48" height="18.48" fill="#ffffff"/><g transform="translate(166.35,166.35) scale(0.924) rotate(0)"><path d="M13 0H20V7L7 20H0V13L13 0Z" fill="#cdeefd"/></g><rect x="184.83" y="147.87" width="36.97" height="36.97" fill="#e3f9fd"/><g transform="translate(184.83,147.87) scale(1.8485) rotate(0)"><path d="M5 0H10L5 5L0 10V5L5 0Z" fill="#ffffff"/><path d="M20 15V20H15L20 15Z" fill="#ffffff"/><path d="M20 5V10L15 15L10 20H5L20 5Z" fill="#ffffff"/><path d="M15 0H20L5 15.0002L0 20.0002V15.0002L15 0Z" fill="#ffffff"/></g><rect x="258.77" y="147.87" width="36.97" height="36.97" fill="#d5f9fd"/><g transform="translate(258.77,147.87) scale(1.8485) rotate(0)"><path d="M10 5L5 0L0 5L5 10L0 15L5 20L10 15L15 20L20 15L15 10L20 5L15 0L10 5Z" fill="#6fe2f4"/></g><rect x="369.67" y="147.87" width="36.97" height="36.97" fill="#ffffff"/><g transform="translate(369.67,147.87) scale(1.8485) rotate(0)"><rect width="2" height="20" fill="#b0f3fc"/><rect x="4" width="2" height="20" fill="#b0f3fc"/><rect x="8" width="2" height="20" fill="#b0f3fc"/><rect x="12" width="2" height="20" fill="#b0f3fc"/><rect x="16" width="2" height="20" fill="#b0f3fc"/></g><rect x="406.6333333333333" y="147.86666666666667" width="36.96666666666667" height="36.96666666666667" fill="#ffffff"/><rect x="406.63" y="147.87" width="18.48" height="18.48" fill="#8be8f6"/><g transform="translate(406.63,147.87) scale(0.924) rotate(0)"><path d="M10 0H20V10L10 20H0V10L10 0Z" fill="#ffffff"/></g><rect x="425.12" y="147.87" width="18.48" height="18.48" fill="#ffffff"/><g transform="translate(425.12,147.87) scale(0.924) rotate(0)"><path d="M10 5L5 0L0 5L5 10L0 15L5 20L10 15L15 20L20 15L15 10L20 5L15 0L10 5Z" fill="#ffffff"/></g><rect x="406.63" y="166.35" width="18.48" height="18.48" fill="#ffffff"/><g transform="translate(406.63,166.35) scale(0.924) rotate(0)"><rect width="2" height="20" fill="#e9f8fe"/><rect x="4" width="2" height="20" fill="#e9f8fe"/><rect x="8" width="2" height="20" fill="#e9f8fe"/><rect x="12" width="2" height="20" fill="#e9f8fe"/><rect x="16" width="2" height="20" fill="#e9f8fe"/></g><rect x="0" y="184.83333333333334" width="36.96666666666667" height="36.96666666666667" fill="#ffffff"/><rect x="18.48" y="203.32" width="18.48" height="18.48" fill="#9aebf7"/><g transform="translate(18.48,203.32) scale(0.924) rotate(0)"><rect width="2" height="20" fill="#5fcaf9"/><rect x="4" width="2" height="20" fill="#5fcaf9"/><rect x="8" width="2" height="20" fill="#5fcaf9"/><rect x="12" width="2" height="20" fill="#5fcaf9"/><rect x="16" width="2" height="20" fill="#5fcaf9"/></g><rect x="36.96666666666667" y="184.83333333333334" width="36.96666666666667" height="36.96666666666667" fill="#ffffff"/><rect x="36.97" y="184.83" width="18.48" height="18.48" fill="#ffffff"/><g transform="translate(36.97,184.83) scale(0.924) rotate(0)"><path d="M13 0H20V7L7 20H0V13L13 0Z" fill="#42c0f8"/></g><rect x="36.97" y="203.32" width="18.48" height="18.48" fill="#b8f1fa"/><g transform="translate(36.97,203.32) scale(0.924) rotate(0)"><path d="M10 0H20V10L10 20H0V10L10 0Z" fill="#ffffff"/></g><rect x="55.45" y="203.32" width="18.48" height="18.48" fill="#ffffff"/><g transform="translate(55.45,203.32) scale(0.924) rotate(0)"><rect width="2" height="20" fill="#ffffff"/><rect x="4" width="2" height="20" fill="#ffffff"/><rect x="8" width="2" height="20" fill="#ffffff"/><rect x="12" width="2" height="20" fill="#ffffff"/><rect x="16" width="2" height="20" fill="#ffffff"/></g><rect x="73.93333333333334" y="184.83333333333334" width="36.96666666666667" height="36.96666666666667" fill="#ffffff"/><rect x="73.93" y="184.83" width="18.48" height="18.48" fill="#9adefb"/><g transform="translate(73.93,184.83) scale(0.924) rotate(0)"><path d="M5 0H10L5 5L0 10V5L5 0Z" fill="#9bdefb"/><path d="M20 15V20H15L20 15Z" fill="#9bdefb"/><path d="M20 5V10L15 15L10 20H5L20 5Z" fill="#9bdefb"/><path d="M15 0H20L5 15.0002L0 20.0002V15.0002L15 0Z" fill="#9bdefb"/></g><rect x="73.93" y="203.32" width="18.48" height="18.48" fill="#bdf5fc"/><g transform="translate(73.93,203.32) scale(0.924) rotate(0)"><path d="M13 0H20V7L7 20H0V13L13 0Z" fill="#f1fdfe"/></g><rect x="110.9" y="184.83333333333334" width="36.96666666666667" height="36.96666666666667" fill="#ffffff"/><rect x="110.9" y="184.83" width="18.48" height="18.48" fill="#e2fbfe"/><g transform="translate(110.9,184.83) scale(0.924) rotate(0)"><path d="M5 0H10L5 5L0 10V5L5 0Z" fill="#b5f4fc"/><path d="M20 15V20H15L20 15Z" fill="#b5f4fc"/><path d="M20 5V10L15 15L10 20H5L20 5Z" fill="#b5f4fc"/><path d="M15 0H20L5 15.0002L0 20.0002V15.0002L15 0Z" fill="#b5f4fc"/></g><rect x="129.38" y="184.83" width="18.48" height="18.48" fill="#2ed5ef"/><g transform="translate(129.38,184.83) scale(0.924) rotate(0)"><rect width="2" height="20" fill="#7debfa"/><rect x="4" width="2" height="20" fill="#7debfa"/><rect x="8" width="2" height="20" fill="#7debfa"/><rect x="12" width="2" height="20" fill="#7debfa"/><rect x="16" width="2" height="20" fill="#7debfa"/></g><rect x="110.9" y="203.32" width="18.48" height="18.48" fill="#ffffff"/><g transform="translate(110.9,203.32) scale(0.924) rotate(0)"><path d="M10 5L5 0L0 5L5 10L0 15L5 20L10 15L15 20L20 15L15 10L20 5L15 0L10 5Z" fill="#edfbfe"/></g><rect x="129.38" y="203.32" width="18.48" height="18.48" fill="#3cbef8"/><g transform="translate(129.38,203.32) scale(0.924) rotate(0)"><path d="M5 0H10L5 5L0 10V5L5 0Z" fill="#42d9f0"/><path d="M20 15V20H15L20 15Z" fill="#42d9f0"/><path d="M20 5V10L15 15L10 20H5L20 5Z" fill="#42d9f0"/><path d="M15 0H20L5 15.0002L0 20.0002V15.0002L15 0Z" fill="#42d9f0"/></g><rect x="147.87" y="184.83" width="36.97" height="36.97" fill="#ffffff"/><g transform="translate(147.87,184.83) scale(1.8485) rotate(0)"><path d="M10 0H20V10L10 20H0V10L10 0Z" fill="#37d7f0"/></g><rect x="184.83333333333334" y="184.83333333333334" width="36.96666666666667" height="36.96666666666667" fill="#ffffff"/><rect x="203.32" y="184.83" width="18.48" height="18.48" fill="#e3f6fe"/><g transform="translate(203.32,184.83) scale(0.924) rotate(0)"><path d="M10 0H20V10L10 20H0V10L10 0Z" fill="#dbf8fc"/></g><rect x="203.32" y="203.32" width="18.48" height="18.48" fill="#9cf0fb"/><g transform="translate(203.32,203.32) scale(0.924) rotate(0)"><path d="M10 0H20V10L10 20H0V10L10 0Z" fill="#ffffff"/></g><rect x="221.8" y="184.83333333333334" width="36.96666666666667" height="36.96666666666667" fill="#ffffff"/><rect x="240.28" y="184.83" width="18.48" height="18.48" fill="#45daf1"/><g transform="translate(240.28,184.83) scale(0.924) rotate(0)"><path d="M13 0H20V7L7 20H0V13L13 0Z" fill="#ffffff"/></g><rect x="295.73333333333335" y="184.83333333333334" width="36.96666666666667" height="36.96666666666667" fill="#ffffff"/><rect x="295.73" y="184.83" width="18.48" height="18.48" fill="#86e7f6"/><g transform="translate(295.73,184.83) scale(0.924) rotate(0)"><path d="M5 0H10L5 5L0 10V5L5 0Z" fill="#ffffff"/><path d="M20 15V20H15L20 15Z" fill="#ffffff"/><path d="M20 5V10L15 15L10 20H5L20 5Z" fill="#ffffff"/><path d="M15 0H20L5 15.0002L0 20.0002V15.0002L15 0Z" fill="#ffffff"/></g><rect x="314.22" y="184.83" width="18.48" height="18.48" fill="#2ed5ef"/><g transform="translate(314.22,184.83) scale(0.924) rotate(0)"><path d="M10 0H20V10L10 20H0V10L10 0Z" fill="#ffffff"/></g><rect x="295.73" y="203.32" width="18.48" height="18.48" fill="#dcf4fe"/><g transform="translate(295.73,203.32) scale(0.924) rotate(0)"><path d="M13 0H20V7L7 20H0V13L13 0Z" fill="#ffffff"/></g><rect x="314.22" y="203.32" width="18.48" height="18.48" fill="#8ce8f6"/><g transform="translate(314.22,203.32) scale(0.924) rotate(0)"><rect width="2" height="20" fill="#51c5f9"/><rect x="4" width="2" height="20" fill="#51c5f9"/><rect x="8" width="2" height="20" fill="#51c5f9"/><rect x="12" width="2" height="20" fill="#51c5f9"/><rect x="16" width="2" height="20" fill="#51c5f9"/></g><rect x="332.7" y="184.83" width="36.97" height="36.97" fill="#6acefa"/><g transform="translate(332.7,184.83) scale(1.8485) rotate(0)"><path d="M10 0H20V10L10 20H0V10L10 0Z" fill="#ffffff"/></g><rect x="36.96666666666667" y="221.8" width="36.96666666666667" height="36.96666666666667" fill="#ffffff"/><rect x="55.45" y="221.8" width="18.48" height="18.48" fill="#bcf2fa"/><g transform="translate(55.45,221.8) scale(0.924) rotate(0)"><path d="M10 5L5 0L0 5L5 10L0 15L5 20L10 15L15 20L20 15L15 10L20 5L15 0L10 5Z" fill="#d0f8fd"/></g><rect x="36.97" y="240.28" width="18.48" height="18.48" fill="#8aedfa"/><g transform="translate(36.97,240.28) scale(0.924) rotate(0)"><path d="M10 0H20V10L10 20H0V10L10 0Z" fill="#d0effd"/></g><rect x="55.45" y="240.28" width="18.48" height="18.48" fill="#71e3f4"/><g transform="translate(55.45,240.28) scale(0.924) rotate(0)"><path d="M10 0H20V10L10 20H0V10L10 0Z" fill="#ffffff"/></g><rect x="73.93333333333334" y="221.8" width="36.96666666666667" height="36.96666666666667" fill="#ffffff"/><rect x="73.93" y="221.8" width="18.48" height="18.48" fill="#48c2f9"/><g transform="translate(73.93,221.8) scale(0.924) rotate(0)"><path d="M5 0H10L5 5L0 10V5L5 0Z" fill="#ffffff"/><path d="M20 15V20H15L20 15Z" fill="#ffffff"/><path d="M20 5V10L15 15L10 20H5L20 5Z" fill="#ffffff"/><path d="M15 0H20L5 15.0002L0 20.0002V15.0002L15 0Z" fill="#ffffff"/></g><rect x="92.42" y="221.8" width="18.48" height="18.48" fill="#e6f7fe"/><g transform="translate(92.42,221.8) scale(0.924) rotate(0)"><path d="M10 0H20V10L10 20H0V10L10 0Z" fill="#ffffff"/></g><rect x="73.93" y="240.28" width="18.48" height="18.48" fill="#9ef0fb"/><g transform="translate(73.93,240.28) scale(0.924) rotate(0)"><path d="M13 0H20V7L7 20H0V13L13 0Z" fill="#ffffff"/></g><rect x="92.42" y="240.28" width="18.48" height="18.48" fill="#8be8f6"/><g transform="translate(92.42,240.28) scale(0.924) rotate(0)"><path d="M13 0H20V7L7 20H0V13L13 0Z" fill="#40d9f0"/></g><rect x="110.9" y="221.8" width="36.97" height="36.97" fill="#c9f7fd"/><g transform="translate(110.9,221.8) scale(1.8485) rotate(0)"><rect width="2" height="20" fill="#ffffff"/><rect x="4" width="2" height="20" fill="#ffffff"/><rect x="8" width="2" height="20" fill="#ffffff"/><rect x="12" width="2" height="20" fill="#ffffff"/><rect x="16" width="2" height="20" fill="#ffffff"/></g><rect x="147.86666666666667" y="221.8" width="36.96666666666667" height="36.96666666666667" fill="#ffffff"/><rect x="147.87" y="221.8" width="18.48" height="18.48" fill="#c3f6fd"/><g transform="translate(147.87,221.8) scale(0.924) rotate(0)"><path d="M5 0H10L5 5L0 10V5L5 0Z" fill="#ffffff"/><path d="M20 15V20H15L20 15Z" fill="#ffffff"/><path d="M20 5V10L15 15L10 20H5L20 5Z" fill="#ffffff"/><path d="M15 0H20L5 15.0002L0 20.0002V15.0002L15 0Z" fill="#ffffff"/></g><rect x="166.35" y="221.8" width="18.48" height="18.48" fill="#cfeffd"/><g transform="translate(166.35,221.8) scale(0.924) rotate(0)"><rect width="2" height="20" fill="#ffffff"/><rect x="4" width="2" height="20" fill="#ffffff"/><rect x="8" width="2" height="20" fill="#ffffff"/><rect x="12" width="2" height="20" fill="#ffffff"/><rect x="16" width="2" height="20" fill="#ffffff"/></g><rect x="166.35" y="240.28" width="18.48" height="18.48" fill="#ffffff"/><g transform="translate(166.35,240.28) scale(0.924) rotate(0)"><path d="M10 0H20V10L10 20H0V10L10 0Z" fill="#ffffff"/></g><rect x="221.8" y="221.8" width="36.96666666666667" height="36.96666666666667" fill="#ffffff"/><rect x="240.28" y="221.8" width="18.48" height="18.48" fill="#7bd3fa"/><g transform="translate(240.28,221.8) scale(0.924) rotate(0)"><path d="M5 0H10L5 5L0 10V5L5 0Z" fill="#99ddfb"/><path d="M20 15V20H15L20 15Z" fill="#99ddfb"/><path d="M20 5V10L15 15L10 20H5L20 5Z" fill="#99ddfb"/><path d="M15 0H20L5 15.0002L0 20.0002V15.0002L15 0Z" fill="#99ddfb"/></g><rect x="240.28" y="240.28" width="18.48" height="18.48" fill="#5cdff2"/><g transform="translate(240.28,240.28) scale(0.924) rotate(0)"><path d="M10 5L5 0L0 5L5 10L0 15L5 20L10 15L15 20L20 15L15 10L20 5L15 0L10 5Z" fill="#ffffff"/></g><rect x="332.7" y="221.8" width="36.97" height="36.97" fill="#c7f6fd"/><g transform="translate(332.7,221.8) scale(1.8485) rotate(0)"><path d="M13 0H20V7L7 20H0V13L13 0Z" fill="#94effb"/></g><rect x="369.6666666666667" y="221.8" width="36.96666666666667" height="36.96666666666667" fill="#ffffff"/><rect x="369.67" y="221.8" width="18.48" height="18.48" fill="#aaf2fc"/><g transform="translate(369.67,221.8) scale(0.924) rotate(0)"><rect width="2" height="20" fill="#ffffff"/><rect x="4" width="2" height="20" fill="#ffffff"/><rect x="8" width="2" height="20" fill="#ffffff"/><rect x="12" width="2" height="20" fill="#ffffff"/><rect x="16" width="2" height="20" fill="#ffffff"/></g><rect x="388.15" y="221.8" width="18.48" height="18.48" fill="#ffffff"/><g transform="translate(388.15,221.8) scale(0.924) rotate(0)"><path d="M13 0H20V7L7 20H0V13L13 0Z" fill="#b1f3fc"/></g><rect x="369.67" y="240.28" width="18.48" height="18.48" fill="#ffffff"/><g transform="translate(369.67,240.28) scale(0.924) rotate(0)"><path d="M5 0H10L5 5L0 10V5L5 0Z" fill="#36d7f0"/><path d="M20 15V20H15L20 15Z" fill="#36d7f0"/><path d="M20 5V10L15 15L10 20H5L20 5Z" fill="#36d7f0"/><path d="M15 0H20L5 15.0002L0 20.0002V15.0002L15 0Z" fill="#36d7f0"/></g><rect x="406.6333333333333" y="221.8" width="36.96666666666667" height="36.96666666666667" fill="#ffffff"/><rect x="425.12" y="221.8" width="18.48" height="18.48" fill="#9bdefb"/><g transform="translate(425.12,221.8) scale(0.924) rotate(0)"><path d="M10 0H20V10L10 20H0V10L10 0Z" fill="#ffffff"/></g><rect x="425.12" y="240.28" width="18.48" height="18.48" fill="#ffffff"/><g transform="translate(425.12,240.28) scale(0.924) rotate(0)"><path d="M5 0H10L5 5L0 10V5L5 0Z" fill="#ffffff"/><path d="M20 15V20H15L20 15Z" fill="#ffffff"/><path d="M20 5V10L15 15L10 20H5L20 5Z" fill="#ffffff"/><path d="M15 0H20L5 15.0002L0 20.0002V15.0002L15 0Z" fill="#ffffff"/></g><rect x="36.97" y="258.77" width="36.97" height="36.97" fill="#ffffff"/><g transform="translate(36.97,258.77) scale(1.8485) rotate(0)"><path d="M13 0H20V7L7 20H0V13L13 0Z" fill="#ffffff"/></g><rect x="73.93333333333334" y="258.76666666666665" width="36.96666666666667" height="36.96666666666667" fill="#ffffff"/><rect x="92.42" y="258.77" width="18.48" height="18.48" fill="#5bc9f9"/><g transform="translate(92.42,258.77) scale(0.924) rotate(0)"><path d="M10 0H20V10L10 20H0V10L10 0Z" fill="#ffffff"/></g><rect x="73.93" y="277.25" width="18.48" height="18.48" fill="#ddf8fc"/><g transform="translate(73.93,277.25) scale(0.924) rotate(0)"><path d="M13 0H20V7L7 20H0V13L13 0Z" fill="#60caf9"/></g><rect x="92.42" y="277.25" width="18.48" height="18.48" fill="#ffffff"/><g transform="translate(92.42,277.25) scale(0.924) rotate(0)"><path d="M10 0H20V10L10 20H0V10L10 0Z" fill="#ffffff"/></g><rect x="110.9" y="258.76666666666665" width="36.96666666666667" height="36.96666666666667" fill="#ffffff"/><rect x="110.9" y="258.77" width="18.48" height="18.48" fill="#35d7ef"/><g transform="translate(110.9,258.77) scale(0.924) rotate(0)"><path d="M5 0H10L5 5L0 10V5L5 0Z" fill="#71e9f9"/><path d="M20 15V20H15L20 15Z" fill="#71e9f9"/><path d="M20 5V10L15 15L10 20H5L20 5Z" fill="#71e9f9"/><path d="M15 0H20L5 15.0002L0 20.0002V15.0002L15 0Z" fill="#71e9f9"/></g><rect x="129.38" y="258.77" width="18.48" height="18.48" fill="#42d9f0"/><g transform="translate(129.38,258.77) scale(0.924) rotate(0)"><path d="M10 0H20V10L10 20H0V10L10 0Z" fill="#9fdffc"/></g><rect x="129.38" y="277.25" width="18.48" height="18.48" fill="#48c2f9"/><g transform="translate(129.38,277.25) scale(0.924) rotate(0)"><path d="M10 5L5 0L0 5L5 10L0 15L5 20L10 15L15 20L20 15L15 10L20 5L15 0L10 5Z" fill="#fdffff"/></g><rect x="147.87" y="258.77" width="36.97" height="36.97" fill="#ffffff"/><g transform="translate(147.87,258.77) scale(1.8485) rotate(0)"><rect width="2" height="20" fill="#7debfa"/><rect x="4" width="2" height="20" fill="#7debfa"/><rect x="8" width="2" height="20" fill="#7debfa"/><rect x="12" width="2" height="20" fill="#7debfa"/><rect x="16" width="2" height="20" fill="#7debfa"/></g><rect x="221.8" y="258.76666666666665" width="36.96666666666667" height="36.96666666666667" fill="#ffffff"/><rect x="221.8" y="277.25" width="18.48" height="18.48" fill="#a5f1fb"/><g transform="translate(221.8,277.25) scale(0.924) rotate(0)"><path d="M13 0H20V7L7 20H0V13L13 0Z" fill="#95eaf7"/></g><rect x="240.28" y="277.25" width="18.48" height="18.48" fill="#ffffff"/><g transform="translate(240.28,277.25) scale(0.924) rotate(0)"><rect width="2" height="20" fill="#ffffff"/><rect x="4" width="2" height="20" fill="#ffffff"/><rect x="8" width="2" height="20" fill="#ffffff"/><rect x="12" width="2" height="20" fill="#ffffff"/><rect x="16" width="2" height="20" fill="#ffffff"/></g><rect x="258.77" y="258.77" width="36.97" height="36.97" fill="#90eefb"/><g transform="translate(258.77,258.77) scale(1.8485) rotate(0)"><path d="M10 5L5 0L0 5L5 10L0 15L5 20L10 15L15 20L20 15L15 10L20 5L15 0L10 5Z" fill="#e3f6fe"/></g><rect x="332.70000000000005" y="258.76666666666665" width="36.96666666666667" height="36.96666666666667" fill="#ffffff"/><rect x="332.7" y="258.77" width="18.48" height="18.48" fill="#7ed4fa"/><g transform="translate(332.7,258.77) scale(0.924) rotate(0)"><path d="M5 0H10L5 5L0 10V5L5 0Z" fill="#ffffff"/><path d="M20 15V20H15L20 15Z" fill="#ffffff"/><path d="M20 5V10L15 15L10 20H5L20 5Z" fill="#ffffff"/><path d="M15 0H20L5 15.0002L0 20.0002V15.0002L15 0Z" fill="#ffffff"/></g><rect x="351.18" y="258.77" width="18.48" height="18.48" fill="#e6fafd"/><g transform="translate(351.18,258.77) scale(0.924) rotate(0)"><path d="M10 0H20V10L10 20H0V10L10 0Z" fill="#86e7f6"/></g><rect x="332.7" y="277.25" width="18.48" height="18.48" fill="#84e6f6"/><g transform="translate(332.7,277.25) scale(0.924) rotate(0)"><path d="M5 0H10L5 5L0 10V5L5 0Z" fill="#ffffff"/><path d="M20 15V20H15L20 15Z" fill="#ffffff"/><path d="M20 5V10L15 15L10 20H5L20 5Z" fill="#ffffff"/><path d="M15 0H20L5 15.0002L0 20.0002V15.0002L15 0Z" fill="#ffffff"/></g><rect x="369.6666666666667" y="258.76666666666665" width="36.96666666666667" height="36.96666666666667" fill="#ffffff"/><rect x="369.67" y="258.77" width="18.48" height="18.48" fill="#bdf2fa"/><g transform="translate(369.67,258.77) scale(0.924) rotate(0)"><path d="M13 0H20V7L7 20H0V13L13 0Z" fill="#bbf5fc"/></g><rect x="388.15" y="277.25" width="18.48" height="18.48" fill="#7debfa"/><g transform="translate(388.15,277.25) scale(0.924) rotate(0)"><path d="M10 0H20V10L10 20H0V10L10 0Z" fill="#41d9f0"/></g><rect x="406.63" y="258.77" width="36.97" height="36.97" fill="#91eefb"/><g transform="translate(406.63,258.77) scale(1.8485) rotate(0)"><rect width="2" height="20" fill="#3bd8f0"/><rect x="4" width="2" height="20" fill="#3bd8f0"/><rect x="8" width="2" height="20" fill="#3bd8f0"/><rect x="12" width="2" height="20" fill="#3bd8f0"/><rect x="16" width="2" height="20" fill="#3bd8f0"/></g><rect x="36.97" y="295.73" width="36.97" height="36.97" fill="#55c6f9"/><g transform="translate(36.97,295.73) scale(1.8485) rotate(0)"><rect width="2" height="20" fill="#ffffff"/><rect x="4" width="2" height="20" fill="#ffffff"/><rect x="8" width="2" height="20" fill="#ffffff"/><rect x="12" width="2" height="20" fill="#ffffff"/><rect x="16" width="2" height="20" fill="#ffffff"/></g><rect x="73.93333333333334" y="295.73333333333335" width="36.96666666666667" height="36.96666666666667" fill="#ffffff"/><rect x="73.93" y="295.73" width="18.48" height="18.48" fill="#76d1fa"/><g transform="translate(73.93,295.73) scale(0.924) rotate(0)"><path d="M10 5L5 0L0 5L5 10L0 15L5 20L10 15L15 20L20 15L15 10L20 5L15 0L10 5Z" fill="#ffffff"/></g><rect x="73.93" y="314.22" width="18.48" height="18.48" fill="#ffffff"/><g transform="translate(73.93,314.22) scale(0.924) rotate(0)"><path d="M13 0H20V7L7 20H0V13L13 0Z" fill="#83e6f5"/></g><rect x="92.42" y="314.22" width="18.48" height="18.48" fill="#ffffff"/><g transform="translate(92.42,314.22) scale(0.924) rotate(0)"><path d="M10 0H20V10L10 20H0V10L10 0Z" fill="#ffffff"/></g><rect x="110.9" y="295.73333333333335" width="36.96666666666667" height="36.96666666666667" fill="#ffffff"/><rect x="110.9" y="295.73" width="18.48" height="18.48" fill="#ffffff"/><g transform="translate(110.9,295.73) scale(0.924) rotate(0)"><path d="M5 0H10L5 5L0 10V5L5 0Z" fill="#4cdbf1"/><path d="M20 15V20H15L20 15Z" fill="#4cdbf1"/><path d="M20 5V10L15 15L10 20H5L20 5Z" fill="#4cdbf1"/><path d="M15 0H20L5 15.0002L0 20.0002V15.0002L15 0Z" fill="#4cdbf1"/></g><rect x="129.38" y="295.73" width="18.48" height="18.48" fill="#caf4fb"/><g transform="translate(129.38,295.73) scale(0.924) rotate(0)"><path d="M13 0H20V7L7 20H0V13L13 0Z" fill="#3dbff8"/></g><rect x="129.38" y="314.22" width="18.48" height="18.48" fill="#d4f1fd"/><g transform="translate(129.38,314.22) scale(0.924) rotate(0)"><rect width="2" height="20" fill="#f2fbff"/><rect x="4" width="2" height="20" fill="#f2fbff"/><rect x="8" width="2" height="20" fill="#f2fbff"/><rect x="12" width="2" height="20" fill="#f2fbff"/><rect x="16" width="2" height="20" fill="#f2fbff"/></g><rect x="147.86666666666667" y="295.73333333333335" width="36.96666666666667" height="36.96666666666667" fill="#ffffff"/><rect x="166.35" y="295.73" width="18.48" height="18.48" fill="#ffffff"/><g transform="translate(166.35,295.73) scale(0.924) rotate(0)"><path d="M5 0H10L5 5L0 10V5L5 0Z" fill="#ade4fc"/><path d="M20 15V20H15L20 15Z" fill="#ade4fc"/><path d="M20 5V10L15 15L10 20H5L20 5Z" fill="#ade4fc"/><path d="M15 0H20L5 15.0002L0 20.0002V15.0002L15 0Z" fill="#ade4fc"/></g><rect x="147.87" y="314.22" width="18.48" height="18.48" fill="#f2fdff"/><g transform="translate(147.87,314.22) scale(0.924) rotate(0)"><rect width="2" height="20" fill="#ffffff"/><rect x="4" width="2" height="20" fill="#ffffff"/><rect x="8" width="2" height="20" fill="#ffffff"/><rect x="12" width="2" height="20" fill="#ffffff"/><rect x="16" width="2" height="20" fill="#ffffff"/></g><rect x="166.35" y="314.22" width="18.48" height="18.48" fill="#f4fbff"/><g transform="translate(166.35,314.22) scale(0.924) rotate(0)"><path d="M13 0H20V7L7 20H0V13L13 0Z" fill="#abe3fc"/></g><rect x="184.83333333333334" y="295.73333333333335" width="36.96666666666667" height="36.96666666666667" fill="#ffffff"/><rect x="184.83" y="314.22" width="18.48" height="18.48" fill="#dff9fd"/><g transform="translate(184.83,314.22) scale(0.924) rotate(0)"><path d="M5 0H10L5 5L0 10V5L5 0Z" fill="#daf9fe"/><path d="M20 15V20H15L20 15Z" fill="#daf9fe"/><path d="M20 5V10L15 15L10 20H5L20 5Z" fill="#daf9fe"/><path d="M15 0H20L5 15.0002L0 20.0002V15.0002L15 0Z" fill="#daf9fe"/></g><rect x="221.8" y="295.73333333333335" width="36.96666666666667" height="36.96666666666667" fill="#ffffff"/><rect x="221.8" y="295.73" width="18.48" height="18.48" fill="#8ee9f6"/><g transform="translate(221.8,295.73) scale(0.924) rotate(0)"><path d="M5 0H10L5 5L0 10V5L5 0Z" fill="#ffffff"/><path d="M20 15V20H15L20 15Z" fill="#ffffff"/><path d="M20 5V10L15 15L10 20H5L20 5Z" fill="#ffffff"/><path d="M15 0H20L5 15.0002L0 20.0002V15.0002L15 0Z" fill="#ffffff"/></g><rect x="240.28" y="295.73" width="18.48" height="18.48" fill="#59def2"/><g transform="translate(240.28,295.73) scale(0.924) rotate(0)"><path d="M13 0H20V7L7 20H0V13L13 0Z" fill="#87e7f6"/></g><rect x="221.8" y="314.22" width="18.48" height="18.48" fill="#bdf2fa"/><g transform="translate(221.8,314.22) scale(0.924) rotate(0)"><path d="M10 5L5 0L0 5L5 10L0 15L5 20L10 15L15 20L20 15L15 10L20 5L15 0L10 5Z" fill="#ffffff"/></g><rect x="240.28" y="314.22" width="18.48" height="18.48" fill="#46c2f8"/><g transform="translate(240.28,314.22) scale(0.924) rotate(0)"><path d="M10 5L5 0L0 5L5 10L0 15L5 20L10 15L15 20L20 15L15 10L20 5L15 0L10 5Z" fill="#ffffff"/></g><rect x="258.76666666666665" y="295.73333333333335" width="36.96666666666667" height="36.96666666666667" fill="#ffffff"/><rect x="258.77" y="295.73" width="18.48" height="18.48" fill="#ffffff"/><g transform="translate(258.77,295.73) scale(0.924) rotate(0)"><rect width="2" height="20" fill="#b3f3fc"/><rect x="4" width="2" height="20" fill="#b3f3fc"/><rect x="8" width="2" height="20" fill="#b3f3fc"/><rect x="12" width="2" height="20" fill="#b3f3fc"/><rect x="16" width="2" height="20" fill="#b3f3fc"/></g><rect x="277.25" y="295.73" width="18.48" height="18.48" fill="#8cd9fb"/><g transform="translate(277.25,295.73) scale(0.924) rotate(0)"><path d="M10 0H20V10L10 20H0V10L10 0Z" fill="#ffffff"/></g><rect x="258.77" y="314.22" width="18.48" height="18.48" fill="#f5feff"/><g transform="translate(258.77,314.22) scale(0.924) rotate(0)"><path d="M13 0H20V7L7 20H0V13L13 0Z" fill="#afeff9"/></g><rect x="277.25" y="314.22" width="18.48" height="18.48" fill="#b4f0f9"/><g transform="translate(277.25,314.22) scale(0.924) rotate(0)"><path d="M5 0H10L5 5L0 10V5L5 0Z" fill="#79d3fa"/><path d="M20 15V20H15L20 15Z" fill="#79d3fa"/><path d="M20 5V10L15 15L10 20H5L20 5Z" fill="#79d3fa"/><path d="M15 0H20L5 15.0002L0 20.0002V15.0002L15 0Z" fill="#79d3fa"/></g><rect x="295.73333333333335" y="295.73333333333335" width="36.96666666666667" height="36.96666666666667" fill="#ffffff"/><rect x="295.73" y="295.73" width="18.48" height="18.48" fill="#f0fafe"/><g transform="translate(295.73,295.73) scale(0.924) rotate(0)"><path d="M5 0H10L5 5L0 10V5L5 0Z" fill="#e9fbfd"/><path d="M20 15V20H15L20 15Z" fill="#e9fbfd"/><path d="M20 5V10L15 15L10 20H5L20 5Z" fill="#e9fbfd"/><path d="M15 0H20L5 15.0002L0 20.0002V15.0002L15 0Z" fill="#e9fbfd"/></g><rect x="314.22" y="295.73" width="18.48" height="18.48" fill="#42c0f8"/><g transform="translate(314.22,295.73) scale(0.924) rotate(0)"><rect width="2" height="20" fill="#75eafa"/><rect x="4" width="2" height="20" fill="#75eafa"/><rect x="8" width="2" height="20" fill="#75eafa"/><rect x="12" width="2" height="20" fill="#75eafa"/><rect x="16" width="2" height="20" fill="#75eafa"/></g><rect x="314.22" y="314.22" width="18.48" height="18.48" fill="#ffffff"/><g transform="translate(314.22,314.22) scale(0.924) rotate(0)"><path d="M10 0H20V10L10 20H0V10L10 0Z" fill="#ffffff"/></g><rect x="406.63" y="295.73" width="36.97" height="36.97" fill="#88e7f6"/><g transform="translate(406.63,295.73) scale(1.8485) rotate(0)"><path d="M10 5L5 0L0 5L5 10L0 15L5 20L10 15L15 20L20 15L15 10L20 5L15 0L10 5Z" fill="#6ce9f9"/></g><rect x="73.93333333333334" y="332.70000000000005" width="36.96666666666667" height="36.96666666666667" fill="#ffffff"/><rect x="73.93" y="332.7" width="18.48" height="18.48" fill="#ffffff"/><g transform="translate(73.93,332.7) scale(0.924) rotate(0)"><path d="M10 5L5 0L0 5L5 10L0 15L5 20L10 15L15 20L20 15L15 10L20 5L15 0L10 5Z" fill="#ffffff"/></g><rect x="92.42" y="332.7" width="18.48" height="18.48" fill="#85d7fb"/><g transform="translate(92.42,332.7) scale(0.924) rotate(0)"><path d="M5 0H10L5 5L0 10V5L5 0Z" fill="#feffff"/><path d="M20 15V20H15L20 15Z" fill="#feffff"/><path d="M20 5V10L15 15L10 20H5L20 5Z" fill="#feffff"/><path d="M15 0H20L5 15.0002L0 20.0002V15.0002L15 0Z" fill="#feffff"/></g><rect x="73.93" y="351.18" width="18.48" height="18.48" fill="#f7fdfe"/><g transform="translate(73.93,351.18) scale(0.924) rotate(0)"><path d="M5 0H10L5 5L0 10V5L5 0Z" fill="#ffffff"/><path d="M20 15V20H15L20 15Z" fill="#ffffff"/><path d="M20 5V10L15 15L10 20H5L20 5Z" fill="#ffffff"/><path d="M15 0H20L5 15.0002L0 20.0002V15.0002L15 0Z" fill="#ffffff"/></g><rect x="92.42" y="351.18" width="18.48" height="18.48" fill="#a6edf8"/><g transform="translate(92.42,351.18) scale(0.924) rotate(0)"><path d="M10 5L5 0L0 5L5 10L0 15L5 20L10 15L15 20L20 15L15 10L20 5L15 0L10 5Z" fill="#ffffff"/></g><rect x="110.9" y="332.70000000000005" width="36.96666666666667" height="36.96666666666667" fill="#ffffff"/><rect x="129.38" y="332.7" width="18.48" height="18.48" fill="#93dbfb"/><g transform="translate(129.38,332.7) scale(0.924) rotate(0)"><path d="M10 5L5 0L0 5L5 10L0 15L5 20L10 15L15 20L20 15L15 10L20 5L15 0L10 5Z" fill="#ffffff"/></g><rect x="110.9" y="351.18" width="18.48" height="18.48" fill="#9aebf7"/><g transform="translate(110.9,351.18) scale(0.924) rotate(0)"><path d="M10 0H20V10L10 20H0V10L10 0Z" fill="#ffffff"/></g><rect x="221.8" y="332.70000000000005" width="36.96666666666667" height="36.96666666666667" fill="#ffffff"/><rect x="221.8" y="332.7" width="18.48" height="18.48" fill="#ffffff"/><g transform="translate(221.8,332.7) scale(0.924) rotate(0)"><path d="M13 0H20V7L7 20H0V13L13 0Z" fill="#ffffff"/></g><rect x="240.28" y="332.7" width="18.48" height="18.48" fill="#8deefa"/><g transform="translate(240.28,332.7) scale(0.924) rotate(0)"><path d="M10 5L5 0L0 5L5 10L0 15L5 20L10 15L15 20L20 15L15 10L20 5L15 0L10 5Z" fill="#24d3ee"/></g><rect x="295.73" y="332.7" width="36.97" height="36.97" fill="#ffffff"/><g transform="translate(295.73,332.7) scale(1.8485) rotate(0)"><path d="M10 5L5 0L0 5L5 10L0 15L5 20L10 15L15 20L20 15L15 10L20 5L15 0L10 5Z" fill="#bdf5fc"/></g><rect x="332.70000000000005" y="332.70000000000005" width="36.96666666666667" height="36.96666666666667" fill="#ffffff"/><rect x="351.18" y="332.7" width="18.48" height="18.48" fill="#ffffff"/><g transform="translate(351.18,332.7) scale(0.924) rotate(0)"><path d="M10 5L5 0L0 5L5 10L0 15L5 20L10 15L15 20L20 15L15 10L20 5L15 0L10 5Z" fill="#4bc3f9"/></g><rect x="369.67" y="332.7" width="36.97" height="36.97" fill="#93dbfb"/><g transform="translate(369.67,332.7) scale(1.8485) rotate(0)"><path d="M13 0H20V7L7 20H0V13L13 0Z" fill="#e5fbfe"/></g><rect x="0" y="369.67" width="36.97" height="36.97" fill="#a0dffc"/><g transform="translate(0,369.67) scale(1.8485) rotate(0)"><path d="M5 0H10L5 5L0 10V5L5 0Z" fill="#cbf5fb"/><path d="M20 15V20H15L20 15Z" fill="#cbf5fb"/><path d="M20 5V10L15 15L10 20H5L20 5Z" fill="#cbf5fb"/><path d="M15 0H20L5 15.0002L0 20.0002V15.0002L15 0Z" fill="#cbf5fb"/></g><rect x="36.97" y="369.67" width="36.97" height="36.97" fill="#ffffff"/><g transform="translate(36.97,369.67) scale(1.8485) rotate(0)"><path d="M10 0H20V10L10 20H0V10L10 0Z" fill="#c1f6fd"/></g><rect x="73.93" y="369.67" width="36.97" height="36.97" fill="#ebf8fe"/><g transform="translate(73.93,369.67) scale(1.8485) rotate(0)"><path d="M5 0H10L5 5L0 10V5L5 0Z" fill="#caf7fd"/><path d="M20 15V20H15L20 15Z" fill="#caf7fd"/><path d="M20 5V10L15 15L10 20H5L20 5Z" fill="#caf7fd"/><path d="M15 0H20L5 15.0002L0 20.0002V15.0002L15 0Z" fill="#caf7fd"/></g><rect x="110.9" y="369.6666666666667" width="36.96666666666667" height="36.96666666666667" fill="#ffffff"/><rect x="129.38" y="369.67" width="18.48" height="18.48" fill="#edfcfe"/><g transform="translate(129.38,369.67) scale(0.924) rotate(0)"><path d="M13 0H20V7L7 20H0V13L13 0Z" fill="#ffffff"/></g><rect x="129.38" y="388.15" width="18.48" height="18.48" fill="#ffffff"/><g transform="translate(129.38,388.15) scale(0.924) rotate(0)"><path d="M13 0H20V7L7 20H0V13L13 0Z" fill="#a4e1fc"/></g><rect x="221.8" y="369.67" width="36.97" height="36.97" fill="#ffffff"/><g transform="translate(221.8,369.67) scale(1.8485) rotate(0)"><path d="M10 5L5 0L0 5L5 10L0 15L5 20L10 15L15 20L20 15L15 10L20 5L15 0L10 5Z" fill="#50dcf2"/></g><rect x="258.77" y="369.67" width="36.97" height="36.97" fill="#49c3f9"/><g transform="translate(258.77,369.67) scale(1.8485) rotate(0)"><rect width="2" height="20" fill="#a6edf8"/><rect x="4" width="2" height="20" fill="#a6edf8"/><rect x="8" width="2" height="20" fill="#a6edf8"/><rect x="12" width="2" height="20" fill="#a6edf8"/><rect x="16" width="2" height="20" fill="#a6edf8"/></g><rect x="295.73333333333335" y="369.6666666666667" width="36.96666666666667" height="36.96666666666667" fill="#ffffff"/><rect x="295.73" y="369.67" width="18.48" height="18.48" fill="#c7ecfd"/><g transform="translate(295.73,369.67) scale(0.924) rotate(0)"><path d="M13 0H20V7L7 20H0V13L13 0Z" fill="#ffffff"/></g><rect x="314.22" y="369.67" width="18.48" height="18.48" fill="#b9f4fc"/><g transform="translate(314.22,369.67) scale(0.924) rotate(0)"><path d="M5 0H10L5 5L0 10V5L5 0Z" fill="#ffffff"/><path d="M20 15V20H15L20 15Z" fill="#ffffff"/><path d="M20 5V10L15 15L10 20H5L20 5Z" fill="#ffffff"/><path d="M15 0H20L5 15.0002L0 20.0002V15.0002L15 0Z" fill="#ffffff"/></g><rect x="332.7" y="369.67" width="36.97" height="36.97" fill="#6de9f9"/><g transform="translate(332.7,369.67) scale(1.8485) rotate(0)"><path d="M10 5L5 0L0 5L5 10L0 15L5 20L10 15L15 20L20 15L15 10L20 5L15 0L10 5Z" fill="#d3f6fc"/></g><rect x="0" y="406.63" width="36.97" height="36.97" fill="#ffffff"/><g transform="translate(0,406.63) scale(1.8485) rotate(0)"><rect width="2" height="20" fill="#ffffff"/><rect x="4" width="2" height="20" fill="#ffffff"/><rect x="8" width="2" height="20" fill="#ffffff"/><rect x="12" width="2" height="20" fill="#ffffff"/><rect x="16" width="2" height="20" fill="#ffffff"/></g><rect x="36.96666666666667" y="406.6333333333333" width="36.96666666666667" height="36.96666666666667" fill="#ffffff"/><rect x="36.97" y="406.63" width="18.48" height="18.48" fill="#ffffff"/><g transform="translate(36.97,406.63) scale(0.924) rotate(0)"><path d="M10 0H20V10L10 20H0V10L10 0Z" fill="#feffff"/></g><rect x="55.45" y="406.63" width="18.48" height="18.48" fill="#87d7fb"/><g transform="translate(55.45,406.63) scale(0.924) rotate(0)"><path d="M5 0H10L5 5L0 10V5L5 0Z" fill="#9fdffc"/><path d="M20 15V20H15L20 15Z" fill="#9fdffc"/><path d="M20 5V10L15 15L10 20H5L20 5Z" fill="#9fdffc"/><path d="M15 0H20L5 15.0002L0 20.0002V15.0002L15 0Z" fill="#9fdffc"/></g><rect x="36.97" y="425.12" width="18.48" height="18.48" fill="#39bdf8"/><g transform="translate(36.97,425.12) scale(0.924) rotate(0)"><path d="M5 0H10L5 5L0 10V5L5 0Z" fill="#8eeefb"/><path d="M20 15V20H15L20 15Z" fill="#8eeefb"/><path d="M20 5V10L15 15L10 20H5L20 5Z" fill="#8eeefb"/><path d="M15 0H20L5 15.0002L0 20.0002V15.0002L15 0Z" fill="#8eeefb"/></g><rect x="110.9" y="406.6333333333333" width="36.96666666666667" height="36.96666666666667" fill="#ffffff"/><rect x="129.38" y="406.63" width="18.48" height="18.48" fill="#ffffff"/><g transform="translate(129.38,406.63) scale(0.924) rotate(0)"><path d="M10 0H20V10L10 20H0V10L10 0Z" fill="#86edfa"/></g><rect x="110.9" y="425.12" width="18.48" height="18.48" fill="#ffffff"/><g transform="translate(110.9,425.12) scale(0.924) rotate(0)"><rect width="2" height="20" fill="#ffffff"/><rect x="4" width="2" height="20" fill="#ffffff"/><rect x="8" width="2" height="20" fill="#ffffff"/><rect x="12" width="2" height="20" fill="#ffffff"/><rect x="16" width="2" height="20" fill="#ffffff"/></g><rect x="129.38" y="425.12" width="18.48" height="18.48" fill="#b8f1fa"/><g transform="translate(129.38,425.12) scale(0.924) rotate(0)"><path d="M13 0H20V7L7 20H0V13L13 0Z" fill="#4ddcf1"/></g><rect x="184.83333333333334" y="406.6333333333333" width="36.96666666666667" height="36.96666666666667" fill="#ffffff"/><rect x="184.83" y="406.63" width="18.48" height="18.48" fill="#bff5fc"/><g transform="translate(184.83,406.63) scale(0.924) rotate(0)"><path d="M5 0H10L5 5L0 10V5L5 0Z" fill="#ffffff"/><path d="M20 15V20H15L20 15Z" fill="#ffffff"/><path d="M20 5V10L15 15L10 20H5L20 5Z" fill="#ffffff"/><path d="M15 0H20L5 15.0002L0 20.0002V15.0002L15 0Z" fill="#ffffff"/></g><rect x="203.32" y="425.12" width="18.48" height="18.48" fill="#7eebfa"/><g transform="translate(203.32,425.12) scale(0.924) rotate(0)"><path d="M13 0H20V7L7 20H0V13L13 0Z" fill="#f2fdfe"/></g><rect x="221.8" y="406.6333333333333" width="36.96666666666667" height="36.96666666666667" fill="#ffffff"/><rect x="221.8" y="406.63" width="18.48" height="18.48" fill="#ffffff"/><g transform="translate(221.8,406.63) scale(0.924) rotate(0)"><path d="M10 0H20V10L10 20H0V10L10 0Z" fill="#ffffff"/></g><rect x="240.28" y="406.63" width="18.48" height="18.48" fill="#b4f4fc"/><g transform="translate(240.28,406.63) scale(0.924) rotate(0)"><path d="M13 0H20V7L7 20H0V13L13 0Z" fill="#aceef9"/></g><rect x="221.8" y="425.12" width="18.48" height="18.48" fill="#d0effd"/><g transform="translate(221.8,425.12) scale(0.924) rotate(0)"><path d="M10 5L5 0L0 5L5 10L0 15L5 20L10 15L15 20L20 15L15 10L20 5L15 0L10 5Z" fill="#d4f1fd"/></g><rect x="258.76666666666665" y="406.6333333333333" width="36.96666666666667" height="36.96666666666667" fill="#ffffff"/><rect x="258.77" y="406.63" width="18.48" height="18.48" fill="#5bdef2"/><g transform="translate(258.77,406.63) scale(0.924) rotate(0)"><path d="M5 0H10L5 5L0 10V5L5 0Z" fill="#e5fbfe"/><path d="M20 15V20H15L20 15Z" fill="#e5fbfe"/><path d="M20 5V10L15 15L10 20H5L20 5Z" fill="#e5fbfe"/><path d="M15 0H20L5 15.0002L0 20.0002V15.0002L15 0Z" fill="#e5fbfe"/></g><rect x="277.25" y="406.63" width="18.48" height="18.48" fill="#ffffff"/><g transform="translate(277.25,406.63) scale(0.924) rotate(0)"><path d="M5 0H10L5 5L0 10V5L5 0Z" fill="#aef3fc"/><path d="M20 15V20H15L20 15Z" fill="#aef3fc"/><path d="M20 5V10L15 15L10 20H5L20 5Z" fill="#aef3fc"/><path d="M15 0H20L5 15.0002L0 20.0002V15.0002L15 0Z" fill="#aef3fc"/></g><rect x="295.73333333333335" y="406.6333333333333" width="36.96666666666667" height="36.96666666666667" fill="#ffffff"/><rect x="314.22" y="406.63" width="18.48" height="18.48" fill="#5ecaf9"/><g transform="translate(314.22,406.63) scale(0.924) rotate(0)"><path d="M10 5L5 0L0 5L5 10L0 15L5 20L10 15L15 20L20 15L15 10L20 5L15 0L10 5Z" fill="#ffffff"/></g><rect x="295.73" y="425.12" width="18.48" height="18.48" fill="#eafcfe"/><g transform="translate(295.73,425.12) scale(0.924) rotate(0)"><path d="M10 5L5 0L0 5L5 10L0 15L5 20L10 15L15 20L20 15L15 10L20 5L15 0L10 5Z" fill="#ffffff"/></g><rect x="314.22" y="425.12" width="18.48" height="18.48" fill="#9ef0fb"/><g transform="translate(314.22,425.12) scale(0.924) rotate(0)"><path d="M13 0H20V7L7 20H0V13L13 0Z" fill="#c3f6fd"/></g><rect x="332.70000000000005" y="406.6333333333333" width="36.96666666666667" height="36.96666666666667" fill="#ffffff"/><rect x="332.7" y="406.63" width="18.48" height="18.48" fill="#c1f6fd"/><g transform="translate(332.7,406.63) scale(0.924) rotate(0)"><rect width="2" height="20" fill="#79d3fa"/><rect x="4" width="2" height="20" fill="#79d3fa"/><rect x="8" width="2" height="20" fill="#79d3fa"/><rect x="12" width="2" height="20" fill="#79d3fa"/><rect x="16" width="2" height="20" fill="#79d3fa"/></g><rect x="351.18" y="406.63" width="18.48" height="18.48" fill="#c7f4fb"/><g transform="translate(351.18,406.63) scale(0.924) rotate(0)"><rect width="2" height="20" fill="#f3fbff"/><rect x="4" width="2" height="20" fill="#f3fbff"/><rect x="8" width="2" height="20" fill="#f3fbff"/><rect x="12" width="2" height="20" fill="#f3fbff"/><rect x="16" width="2" height="20" fill="#f3fbff"/></g><rect x="332.7" y="425.12" width="18.48" height="18.48" fill="#d1f8fd"/><g transform="translate(332.7,425.12) scale(0.924) rotate(0)"><rect width="2" height="20" fill="#3fd9f0"/><rect x="4" width="2" height="20" fill="#3fd9f0"/><rect x="8" width="2" height="20" fill="#3fd9f0"/><rect x="12" width="2" height="20" fill="#3fd9f0"/><rect x="16" width="2" height="20" fill="#3fd9f0"/></g><rect x="351.18" y="425.12" width="18.48" height="18.48" fill="#ffffff"/><g transform="translate(351.18,425.12) scale(0.924) rotate(0)"><path d="M10 0H20V10L10 20H0V10L10 0Z" fill="#5ac8f9"/></g></g></svg>