<?xml version="1.0" standalone="no"?><svg xmlns:xlink="http://www.w3.org/1999/xlink" xmlns="http://www.w3.org/2000/svg" viewBox="0 0 1000 1000" preserveAspectRatio="xMaxYMax slice"><g transform="scale(2.254283137962128)"><rect x="0" y="0" width="443.6" height="443.6" fill="#ffffff"/><rect x="0" y="0" width="36.96666666666667" height="36.96666666666667" fill="#ffffff"/><rect x="0" y="0" width="18.48" height="18.48" fill="#e4dcfd"/><g transform="translate(0,0) scale(0.924) rotate(0)"><path d="M13 0H20V7L7 20H0V13L13 0Z" fill="#ffffff"/></g><rect x="18.48" y="0" width="18.48" height="18.48" fill="#c8adf7"/><g transform="translate(18.48,0) scale(0.924) rotate(0)"><path d="M5 0H10L5 5L0 10V5L5 0Z" fill="#ede8fe"/><path d="M20 15V20H15L20 15Z" fill="#ede8fe"/><path d="M20 5V10L15 15L10 20H5L20 5Z" fill="#ede8fe"/><path d="M15 0H20L5 15.0002L0 20.0002V15.0002L15 0Z" fill="#ede8fe"/></g><rect x="0" y="18.48" width="18.48" height="18.48" fill="#cfc0fc"/><g transform="translate(0,18.48) scale(0.924) rotate(0)"><path d="M10 5L5 0L0 5L5 10L0 15L5 20L10 15L15 20L20 15L15 10L20 5L15 0L10 5Z" fill="#e9e0fd"/></g><rect x="18.48" y="18.48" width="18.48" height="18.48" fill="#c1a2f6"/><g transform="translate(18.48,18.48) scale(0.924) rotate(0)"><path d="M10 5L5 0L0 5L5 10L0 15L5 20L10 15L15 20L20 15L15 10L20 5L15 0L10 5Z" fill="#ffffff"/></g><rect x="36.97" y="0" width="36.97" height="36.97" fill="#b8a1fb"/><g transform="translate(36.97,0) scale(1.8485) rotate(0)"><path d="M10 0H20V10L10 20H0V10L10 0Z" fill="#b59dfb"/></g><rect x="73.93333333333334" y="0" width="36.96666666666667" height="36.96666666666667" fill="#ffffff"/><rect x="73.93" y="0" width="18.48" height="18.48" fill="#ffffff"/><g transform="translate(73.93,0) scale(0.924) rotate(0)"><path d="M13 0H20V7L7 20H0V13L13 0Z" fill="#efe7fd"/></g><rect x="73.93" y="18.48" width="18.48" height="18.48" fill="#e8e1fe"/><g transform="translate(73.93,18.48) scale(0.924) rotate(0)"><path d="M13 0H20V7L7 20H0V13L13 0Z" fill="#ffffff"/></g><rect x="92.42" y="18.48" width="18.48" height="18.48" fill="#ffffff"/><g transform="translate(92.42,18.48) scale(0.924) rotate(0)"><path d="M10 0H20V10L10 20H0V10L10 0Z" fill="#ebe5fe"/></g><rect x="110.9" y="0" width="36.96666666666667" height="36.96666666666667" fill="#ffffff"/><rect x="110.9" y="0" width="18.48" height="18.48" fill="#c6aaf7"/><g transform="translate(110.9,0) scale(0.924) rotate(0)"><path d="M5 0H10L5 5L0 10V5L5 0Z" fill="#aa7ff3"/><path d="M20 15V20H15L20 15Z" fill="#aa7ff3"/><path d="M20 5V10L15 15L10 20H5L20 5Z" fill="#aa7ff3"/><path d="M15 0H20L5 15.0002L0 20.0002V15.0002L15 0Z" fill="#aa7ff3"/></g><rect x="129.38" y="0" width="18.48" height="18.48" fill="#ac92fa"/><g transform="translate(129.38,0) scale(0.924) rotate(0)"><path d="M10 5L5 0L0 5L5 10L0 15L5 20L10 15L15 20L20 15L15 10L20 5L15 0L10 5Z" fill="#f3effe"/></g><rect x="129.38" y="18.48" width="18.48" height="18.48" fill="#b58ff5"/><g transform="translate(129.38,18.48) scale(0.924) rotate(0)"><path d="M10 0H20V10L10 20H0V10L10 0Z" fill="#e2d6fd"/></g><rect x="147.86666666666667" y="0" width="36.96666666666667" height="36.96666666666667" fill="#ffffff"/><rect x="147.87" y="0" width="18.48" height="18.48" fill="#ffffff"/><g transform="translate(147.87,0) scale(0.924) rotate(0)"><path d="M10 5L5 0L0 5L5 10L0 15L5 20L10 15L15 20L20 15L15 10L20 5L15 0L10 5Z" fill="#e8dcfc"/></g><rect x="166.35" y="0" width="18.48" height="18.48" fill="#ad93fa"/><g transform="translate(166.35,0) scale(0.924) rotate(0)"><path d="M5 0H10L5 5L0 10V5L5 0Z" fill="#b49dfb"/><path d="M20 15V20H15L20 15Z" fill="#b49dfb"/><path d="M20 5V10L15 15L10 20H5L20 5Z" fill="#b49dfb"/><path d="M15 0H20L5 15.0002L0 20.0002V15.0002L15 0Z" fill="#b49dfb"/></g><rect x="147.87" y="18.48" width="18.48" height="18.48" fill="#a67af3"/><g transform="translate(147.87,18.48) scale(0.924) rotate(0)"><path d="M10 0H20V10L10 20H0V10L10 0Z" fill="#f2edfe"/></g><rect x="258.76666666666665" y="0" width="36.96666666666667" height="36.96666666666667" fill="#ffffff"/><rect x="258.77" y="18.48" width="18.48" height="18.48" fill="#9b69f1"/><g transform="translate(258.77,18.48) scale(0.924) rotate(0)"><path d="M10 5L5 0L0 5L5 10L0 15L5 20L10 15L15 20L20 15L15 10L20 5L15 0L10 5Z" fill="#ffffff"/></g><rect x="277.25" y="18.48" width="18.48" height="18.48" fill="#e9e0fd"/><g transform="translate(277.25,18.48) scale(0.924) rotate(0)"><rect width="2" height="20" fill="#c5a8f7"/><rect x="4" width="2" height="20" fill="#c5a8f7"/><rect x="8" width="2" height="20" fill="#c5a8f7"/><rect x="12" width="2" height="20" fill="#c5a8f7"/><rect x="16" width="2" height="20" fill="#c5a8f7"/></g><rect x="295.73333333333335" y="0" width="36.96666666666667" height="36.96666666666667" fill="#ffffff"/><rect x="295.73" y="0" width="18.48" height="18.48" fill="#e0d6fd"/><g transform="translate(295.73,0) scale(0.924) rotate(0)"><rect width="2" height="20" fill="#d4bef9"/><rect x="4" width="2" height="20" fill="#d4bef9"/><rect x="8" width="2" height="20" fill="#d4bef9"/><rect x="12" width="2" height="20" fill="#d4bef9"/><rect x="16" width="2" height="20" fill="#d4bef9"/></g><rect x="314.22" y="0" width="18.48" height="18.48" fill="#ffffff"/><g transform="translate(314.22,0) scale(0.924) rotate(0)"><path d="M5 0H10L5 5L0 10V5L5 0Z" fill="#935cf0"/><path d="M20 15V20H15L20 15Z" fill="#935cf0"/><path d="M20 5V10L15 15L10 20H5L20 5Z" fill="#935cf0"/><path d="M15 0H20L5 15.0002L0 20.0002V15.0002L15 0Z" fill="#935cf0"/></g><rect x="295.73" y="18.48" width="18.48" height="18.48" fill="#ffffff"/><g transform="translate(295.73,18.48) scale(0.924) rotate(0)"><path d="M10 0H20V10L10 20H0V10L10 0Z" fill="#f3f0fe"/></g><rect x="314.22" y="18.48" width="18.48" height="18.48" fill="#d8ccfd"/><g transform="translate(314.22,18.48) scale(0.924) rotate(0)"><rect width="2" height="20" fill="#ac91fa"/><rect x="4" width="2" height="20" fill="#ac91fa"/><rect x="8" width="2" height="20" fill="#ac91fa"/><rect x="12" width="2" height="20" fill="#ac91fa"/><rect x="16" width="2" height="20" fill="#ac91fa"/></g><rect x="332.70000000000005" y="0" width="36.96666666666667" height="36.96666666666667" fill="#ffffff"/><rect x="332.7" y="0" width="18.48" height="18.48" fill="#8040ee"/><g transform="translate(332.7,0) scale(0.924) rotate(0)"><path d="M5 0H10L5 5L0 10V5L5 0Z" fill="#ffffff"/><path d="M20 15V20H15L20 15Z" fill="#ffffff"/><path d="M20 5V10L15 15L10 20H5L20 5Z" fill="#ffffff"/><path d="M15 0H20L5 15.0002L0 20.0002V15.0002L15 0Z" fill="#ffffff"/></g><rect x="351.18" y="0" width="18.48" height="18.48" fill="#ffffff"/><g transform="translate(351.18,0) scale(0.924) rotate(0)"><path d="M13 0H20V7L7 20H0V13L13 0Z" fill="#9a68f1"/></g><rect x="332.7" y="18.48" width="18.48" height="18.48" fill="#ffffff"/><g transform="translate(332.7,18.48) scale(0.924) rotate(0)"><path d="M10 5L5 0L0 5L5 10L0 15L5 20L10 15L15 20L20 15L15 10L20 5L15 0L10 5Z" fill="#a679f3"/></g><rect x="351.18" y="18.48" width="18.48" height="18.48" fill="#ffffff"/><g transform="translate(351.18,18.48) scale(0.924) rotate(0)"><path d="M5 0H10L5 5L0 10V5L5 0Z" fill="#fdfdff"/><path d="M20 15V20H15L20 15Z" fill="#fdfdff"/><path d="M20 5V10L15 15L10 20H5L20 5Z" fill="#fdfdff"/><path d="M15 0H20L5 15.0002L0 20.0002V15.0002L15 0Z" fill="#fdfdff"/></g><rect x="369.67" y="0" width="36.97" height="36.97" fill="#ffffff"/><g transform="translate(369.67,0) scale(1.8485) rotate(0)"><path d="M5 0H10L5 5L0 10V5L5 0Z" fill="#ffffff"/><path d="M20 15V20H15L20 15Z" fill="#ffffff"/><path d="M20 5V10L15 15L10 20H5L20 5Z" fill="#ffffff"/><path d="M15 0H20L5 15.0002L0 20.0002V15.0002L15 0Z" fill="#ffffff"/></g><rect x="0" y="36.96666666666667" width="36.96666666666667" height="36.96666666666667" fill="#ffffff"/><rect x="0" y="36.97" width="18.48" height="18.48" fill="#f9f6fe"/><g transform="translate(0,36.97) scale(0.924) rotate(0)"><path d="M13 0H20V7L7 20H0V13L13 0Z" fill="#ffffff"/></g><rect x="18.48" y="36.97" width="18.48" height="18.48" fill="#e7dafc"/><g transform="translate(18.48,36.97) scale(0.924) rotate(0)"><path d="M10 5L5 0L0 5L5 10L0 15L5 20L10 15L15 20L20 15L15 10L20 5L15 0L10 5Z" fill="#ffffff"/></g><rect x="0" y="55.45" width="18.48" height="18.48" fill="#9063f6"/><g transform="translate(0,55.45) scale(0.924) rotate(0)"><path d="M10 0H20V10L10 20H0V10L10 0Z" fill="#ffffff"/></g><rect x="73.93333333333334" y="36.96666666666667" width="36.96666666666667" height="36.96666666666667" fill="#ffffff"/><rect x="92.42" y="55.45" width="18.48" height="18.48" fill="#ffffff"/><g transform="translate(92.42,55.45) scale(0.924) rotate(0)"><path d="M10 5L5 0L0 5L5 10L0 15L5 20L10 15L15 20L20 15L15 10L20 5L15 0L10 5Z" fill="#9762f1"/></g><rect x="147.86666666666667" y="36.96666666666667" width="36.96666666666667" height="36.96666666666667" fill="#ffffff"/><rect x="147.87" y="36.97" width="18.48" height="18.48" fill="#ffffff"/><g transform="translate(147.87,36.97) scale(0.924) rotate(0)"><path d="M10 5L5 0L0 5L5 10L0 15L5 20L10 15L15 20L20 15L15 10L20 5L15 0L10 5Z" fill="#ffffff"/></g><rect x="166.35" y="36.97" width="18.48" height="18.48" fill="#9469f7"/><g transform="translate(166.35,36.97) scale(0.924) rotate(0)"><path d="M13 0H20V7L7 20H0V13L13 0Z" fill="#ffffff"/></g><rect x="147.87" y="55.45" width="18.48" height="18.48" fill="#ffffff"/><g transform="translate(147.87,55.45) scale(0.924) rotate(0)"><path d="M5 0H10L5 5L0 10V5L5 0Z" fill="#f8f5fe"/><path d="M20 15V20H15L20 15Z" fill="#f8f5fe"/><path d="M20 5V10L15 15L10 20H5L20 5Z" fill="#f8f5fe"/><path d="M15 0H20L5 15.0002L0 20.0002V15.0002L15 0Z" fill="#f8f5fe"/></g><rect x="166.35" y="55.45" width="18.48" height="18.48" fill="#ffffff"/><g transform="translate(166.35,55.45) scale(0.924) rotate(0)"><rect width="2" height="20" fill="#9662f1"/><rect x="4" width="2" height="20" fill="#9662f1"/><rect x="8" width="2" height="20" fill="#9662f1"/><rect x="12" width="2" height="20" fill="#9662f1"/><rect x="16" width="2" height="20" fill="#9662f1"/></g><rect x="221.8" y="36.97" width="36.97" height="36.97" fill="#955ff0"/><g transform="translate(221.8,36.97) scale(1.8485) rotate(0)"><path d="M10 0H20V10L10 20H0V10L10 0Z" fill="#e1d2fb"/></g><rect x="258.76666666666665" y="36.96666666666667" width="36.96666666666667" height="36.96666666666667" fill="#ffffff"/><rect x="258.77" y="36.97" width="18.48" height="18.48" fill="#ffffff"/><g transform="translate(258.77,36.97) scale(0.924) rotate(0)"><path d="M10 5L5 0L0 5L5 10L0 15L5 20L10 15L15 20L20 15L15 10L20 5L15 0L10 5Z" fill="#f4effe"/></g><rect x="258.77" y="55.45" width="18.48" height="18.48" fill="#d1c3fc"/><g transform="translate(258.77,55.45) scale(0.924) rotate(0)"><rect width="2" height="20" fill="#b08ff9"/><rect x="4" width="2" height="20" fill="#b08ff9"/><rect x="8" width="2" height="20" fill="#b08ff9"/><rect x="12" width="2" height="20" fill="#b08ff9"/><rect x="16" width="2" height="20" fill="#b08ff9"/></g><rect x="277.25" y="55.45" width="18.48" height="18.48" fill="#ffffff"/><g transform="translate(277.25,55.45) scale(0.924) rotate(0)"><path d="M5 0H10L5 5L0 10V5L5 0Z" fill="#ffffff"/><path d="M20 15V20H15L20 15Z" fill="#ffffff"/><path d="M20 5V10L15 15L10 20H5L20 5Z" fill="#ffffff"/><path d="M15 0H20L5 15.0002L0 20.0002V15.0002L15 0Z" fill="#ffffff"/></g><rect x="295.73333333333335" y="36.96666666666667" width="36.96666666666667" height="36.96666666666667" fill="#ffffff"/><rect x="314.22" y="36.97" width="18.48" height="18.48" fill="#9a68f1"/><g transform="translate(314.22,36.97) scale(0.924) rotate(0)"><path d="M10 5L5 0L0 5L5 10L0 15L5 20L10 15L15 20L20 15L15 10L20 5L15 0L10 5Z" fill="#ffffff"/></g><rect x="314.22" y="55.45" width="18.48" height="18.48" fill="#a172f2"/><g transform="translate(314.22,55.45) scale(0.924) rotate(0)"><path d="M13 0H20V7L7 20H0V13L13 0Z" fill="#f3effe"/></g><rect x="369.6666666666667" y="36.96666666666667" width="36.96666666666667" height="36.96666666666667" fill="#ffffff"/><rect x="369.67" y="36.97" width="18.48" height="18.48" fill="#ffffff"/><g transform="translate(369.67,36.97) scale(0.924) rotate(0)"><path d="M13 0H20V7L7 20H0V13L13 0Z" fill="#ffffff"/></g><rect x="388.15" y="36.97" width="18.48" height="18.48" fill="#faf8ff"/><g transform="translate(388.15,36.97) scale(0.924) rotate(0)"><path d="M5 0H10L5 5L0 10V5L5 0Z" fill="#f2eefe"/><path d="M20 15V20H15L20 15Z" fill="#f2eefe"/><path d="M20 5V10L15 15L10 20H5L20 5Z" fill="#f2eefe"/><path d="M15 0H20L5 15.0002L0 20.0002V15.0002L15 0Z" fill="#f2eefe"/></g><rect x="369.67" y="55.45" width="18.48" height="18.48" fill="#c8b2fb"/><g transform="translate(369.67,55.45) scale(0.924) rotate(0)"><path d="M10 5L5 0L0 5L5 10L0 15L5 20L10 15L15 20L20 15L15 10L20 5L15 0L10 5Z" fill="#ffffff"/></g><rect x="0" y="73.93333333333334" width="36.96666666666667" height="36.96666666666667" fill="#ffffff"/><rect x="0" y="73.93" width="18.48" height="18.48" fill="#ffffff"/><g transform="translate(0,73.93) scale(0.924) rotate(0)"><path d="M10 5L5 0L0 5L5 10L0 15L5 20L10 15L15 20L20 15L15 10L20 5L15 0L10 5Z" fill="#c0a0f6"/></g><rect x="0" y="92.42" width="18.48" height="18.48" fill="#ffffff"/><g transform="translate(0,92.42) scale(0.924) rotate(0)"><rect width="2" height="20" fill="#f4effe"/><rect x="4" width="2" height="20" fill="#f4effe"/><rect x="8" width="2" height="20" fill="#f4effe"/><rect x="12" width="2" height="20" fill="#f4effe"/><rect x="16" width="2" height="20" fill="#f4effe"/></g><rect x="18.48" y="92.42" width="18.48" height="18.48" fill="#ffffff"/><g transform="translate(18.48,92.42) scale(0.924) rotate(0)"><path d="M10 0H20V10L10 20H0V10L10 0Z" fill="#ffffff"/></g><rect x="36.96666666666667" y="73.93333333333334" width="36.96666666666667" height="36.96666666666667" fill="#ffffff"/><rect x="55.45" y="73.93" width="18.48" height="18.48" fill="#e6d9fc"/><g transform="translate(55.45,73.93) scale(0.924) rotate(0)"><path d="M10 5L5 0L0 5L5 10L0 15L5 20L10 15L15 20L20 15L15 10L20 5L15 0L10 5Z" fill="#e0d7fd"/></g><rect x="55.45" y="92.42" width="18.48" height="18.48" fill="#d8c4fa"/><g transform="translate(55.45,92.42) scale(0.924) rotate(0)"><path d="M5 0H10L5 5L0 10V5L5 0Z" fill="#f8f6ff"/><path d="M20 15V20H15L20 15Z" fill="#f8f6ff"/><path d="M20 5V10L15 15L10 20H5L20 5Z" fill="#f8f6ff"/><path d="M15 0H20L5 15.0002L0 20.0002V15.0002L15 0Z" fill="#f8f6ff"/></g><rect x="73.93" y="73.93" width="36.97" height="36.97" fill="#c3abfa"/><g transform="translate(73.93,73.93) scale(1.8485) rotate(0)"><rect width="2" height="20" fill="#d5c8fd"/><rect x="4" width="2" height="20" fill="#d5c8fd"/><rect x="8" width="2" height="20" fill="#d5c8fd"/><rect x="12" width="2" height="20" fill="#d5c8fd"/><rect x="16" width="2" height="20" fill="#d5c8fd"/></g><rect x="110.9" y="73.93" width="36.97" height="36.97" fill="#cdbefc"/><g transform="translate(110.9,73.93) scale(1.8485) rotate(0)"><path d="M5 0H10L5 5L0 10V5L5 0Z" fill="#8040ee"/><path d="M20 15V20H15L20 15Z" fill="#8040ee"/><path d="M20 5V10L15 15L10 20H5L20 5Z" fill="#8040ee"/><path d="M15 0H20L5 15.0002L0 20.0002V15.0002L15 0Z" fill="#8040ee"/></g><rect x="147.87" y="73.93" width="36.97" height="36.97" fill="#ffffff"/><g transform="translate(147.87,73.93) scale(1.8485) rotate(0)"><path d="M13 0H20V7L7 20H0V13L13 0Z" fill="#ffffff"/></g><rect x="184.83333333333334" y="73.93333333333334" width="36.96666666666667" height="36.96666666666667" fill="#ffffff"/><rect x="184.83" y="73.93" width="18.48" height="18.48" fill="#c1adfb"/><g transform="translate(184.83,73.93) scale(0.924) rotate(0)"><path d="M10 0H20V10L10 20H0V10L10 0Z" fill="#a37ef8"/></g><rect x="203.32" y="73.93" width="18.48" height="18.48" fill="#ffffff"/><g transform="translate(203.32,73.93) scale(0.924) rotate(0)"><rect width="2" height="20" fill="#f1edfe"/><rect x="4" width="2" height="20" fill="#f1edfe"/><rect x="8" width="2" height="20" fill="#f1edfe"/><rect x="12" width="2" height="20" fill="#f1edfe"/><rect x="16" width="2" height="20" fill="#f1edfe"/></g><rect x="184.83" y="92.42" width="18.48" height="18.48" fill="#f2eefe"/><g transform="translate(184.83,92.42) scale(0.924) rotate(0)"><rect width="2" height="20" fill="#a885f8"/><rect x="4" width="2" height="20" fill="#a885f8"/><rect x="8" width="2" height="20" fill="#a885f8"/><rect x="12" width="2" height="20" fill="#a885f8"/><rect x="16" width="2" height="20" fill="#a885f8"/></g><rect x="203.32" y="92.42" width="18.48" height="18.48" fill="#9864f1"/><g transform="translate(203.32,92.42) scale(0.924) rotate(0)"><path d="M10 5L5 0L0 5L5 10L0 15L5 20L10 15L15 20L20 15L15 10L20 5L15 0L10 5Z" fill="#a77bf3"/></g><rect x="221.8" y="73.93" width="36.97" height="36.97" fill="#8e60f6"/><g transform="translate(221.8,73.93) scale(1.8485) rotate(0)"><path d="M10 5L5 0L0 5L5 10L0 15L5 20L10 15L15 20L20 15L15 10L20 5L15 0L10 5Z" fill="#e0d6fd"/></g><rect x="258.77" y="73.93" width="36.97" height="36.97" fill="#c1aefb"/><g transform="translate(258.77,73.93) scale(1.8485) rotate(0)"><path d="M13 0H20V7L7 20H0V13L13 0Z" fill="#ffffff"/></g><rect x="295.73333333333335" y="73.93333333333334" width="36.96666666666667" height="36.96666666666667" fill="#ffffff"/><rect x="295.73" y="73.93" width="18.48" height="18.48" fill="#ffffff"/><g transform="translate(295.73,73.93) scale(0.924) rotate(0)"><path d="M10 0H20V10L10 20H0V10L10 0Z" fill="#f3edfd"/></g><rect x="314.22" y="73.93" width="18.48" height="18.48" fill="#ffffff"/><g transform="translate(314.22,73.93) scale(0.924) rotate(0)"><path d="M5 0H10L5 5L0 10V5L5 0Z" fill="#ffffff"/><path d="M20 15V20H15L20 15Z" fill="#ffffff"/><path d="M20 5V10L15 15L10 20H5L20 5Z" fill="#ffffff"/><path d="M15 0H20L5 15.0002L0 20.0002V15.0002L15 0Z" fill="#ffffff"/></g><rect x="369.6666666666667" y="73.93333333333334" width="36.96666666666667" height="36.96666666666667" fill="#ffffff"/><rect x="369.67" y="73.93" width="18.48" height="18.48" fill="#ffffff"/><g transform="translate(369.67,73.93) scale(0.924) rotate(0)"><path d="M5 0H10L5 5L0 10V5L5 0Z" fill="#fcfaff"/><path d="M20 15V20H15L20 15Z" fill="#fcfaff"/><path d="M20 5V10L15 15L10 20H5L20 5Z" fill="#fcfaff"/><path d="M15 0H20L5 15.0002L0 20.0002V15.0002L15 0Z" fill="#fcfaff"/></g><rect x="388.15" y="73.93" width="18.48" height="18.48" fill="#ffffff"/><g transform="translate(388.15,73.93) scale(0.924) rotate(0)"><path d="M10 0H20V10L10 20H0V10L10 0Z" fill="#b597f9"/></g><rect x="36.96666666666667" y="110.9" width="36.96666666666667" height="36.96666666666667" fill="#ffffff"/><rect x="36.97" y="110.9" width="18.48" height="18.48" fill="#ffffff"/><g transform="translate(36.97,110.9) scale(0.924) rotate(0)"><path d="M10 0H20V10L10 20H0V10L10 0Z" fill="#d6c1f9"/></g><rect x="55.45" y="110.9" width="18.48" height="18.48" fill="#ffffff"/><g transform="translate(55.45,110.9) scale(0.924) rotate(0)"><path d="M10 5L5 0L0 5L5 10L0 15L5 20L10 15L15 20L20 15L15 10L20 5L15 0L10 5Z" fill="#8c52ef"/></g><rect x="36.97" y="129.38" width="18.48" height="18.48" fill="#ffffff"/><g transform="translate(36.97,129.38) scale(0.924) rotate(0)"><path d="M10 5L5 0L0 5L5 10L0 15L5 20L10 15L15 20L20 15L15 10L20 5L15 0L10 5Z" fill="#ffffff"/></g><rect x="55.45" y="129.38" width="18.48" height="18.48" fill="#e5ddfe"/><g transform="translate(55.45,129.38) scale(0.924) rotate(0)"><path d="M13 0H20V7L7 20H0V13L13 0Z" fill="#e8e1fe"/></g><rect x="73.93333333333334" y="110.9" width="36.96666666666667" height="36.96666666666667" fill="#ffffff"/><rect x="73.93" y="110.9" width="18.48" height="18.48" fill="#ffffff"/><g transform="translate(73.93,110.9) scale(0.924) rotate(0)"><rect width="2" height="20" fill="#aa8ffa"/><rect x="4" width="2" height="20" fill="#aa8ffa"/><rect x="8" width="2" height="20" fill="#aa8ffa"/><rect x="12" width="2" height="20" fill="#aa8ffa"/><rect x="16" width="2" height="20" fill="#aa8ffa"/></g><rect x="92.42" y="110.9" width="18.48" height="18.48" fill="#a47ff8"/><g transform="translate(92.42,110.9) scale(0.924) rotate(0)"><path d="M13 0H20V7L7 20H0V13L13 0Z" fill="#ffffff"/></g><rect x="73.93" y="129.38" width="18.48" height="18.48" fill="#ad84f4"/><g transform="translate(73.93,129.38) scale(0.924) rotate(0)"><path d="M10 0H20V10L10 20H0V10L10 0Z" fill="#ffffff"/></g><rect x="110.9" y="110.9" width="36.97" height="36.97" fill="#ffffff"/><g transform="translate(110.9,110.9) scale(1.8485) rotate(0)"><path d="M10 5L5 0L0 5L5 10L0 15L5 20L10 15L15 20L20 15L15 10L20 5L15 0L10 5Z" fill="#ffffff"/></g><rect x="147.86666666666667" y="110.9" width="36.96666666666667" height="36.96666666666667" fill="#ffffff"/><rect x="147.87" y="110.9" width="18.48" height="18.48" fill="#ffffff"/><g transform="translate(147.87,110.9) scale(0.924) rotate(0)"><path d="M10 0H20V10L10 20H0V10L10 0Z" fill="#d4c6fd"/></g><rect x="166.35" y="110.9" width="18.48" height="18.48" fill="#bc9af6"/><g transform="translate(166.35,110.9) scale(0.924) rotate(0)"><path d="M10 0H20V10L10 20H0V10L10 0Z" fill="#ba9efa"/></g><rect x="147.87" y="129.38" width="18.48" height="18.48" fill="#ffffff"/><g transform="translate(147.87,129.38) scale(0.924) rotate(0)"><rect width="2" height="20" fill="#ffffff"/><rect x="4" width="2" height="20" fill="#ffffff"/><rect x="8" width="2" height="20" fill="#ffffff"/><rect x="12" width="2" height="20" fill="#ffffff"/><rect x="16" width="2" height="20" fill="#ffffff"/></g><rect x="221.8" y="110.9" width="36.97" height="36.97" fill="#ffffff"/><g transform="translate(221.8,110.9) scale(1.8485) rotate(0)"><path d="M10 0H20V10L10 20H0V10L10 0Z" fill="#c5b3fc"/></g><rect x="295.73333333333335" y="110.9" width="36.96666666666667" height="36.96666666666667" fill="#ffffff"/><rect x="295.73" y="129.38" width="18.48" height="18.48" fill="#ffffff"/><g transform="translate(295.73,129.38) scale(0.924) rotate(0)"><rect width="2" height="20" fill="#f1ebfe"/><rect x="4" width="2" height="20" fill="#f1ebfe"/><rect x="8" width="2" height="20" fill="#f1ebfe"/><rect x="12" width="2" height="20" fill="#f1ebfe"/><rect x="16" width="2" height="20" fill="#f1ebfe"/></g><rect x="314.22" y="129.38" width="18.48" height="18.48" fill="#ffffff"/><g transform="translate(314.22,129.38) scale(0.924) rotate(0)"><path d="M5 0H10L5 5L0 10V5L5 0Z" fill="#f7f3fe"/><path d="M20 15V20H15L20 15Z" fill="#f7f3fe"/><path d="M20 5V10L15 15L10 20H5L20 5Z" fill="#f7f3fe"/><path d="M15 0H20L5 15.0002L0 20.0002V15.0002L15 0Z" fill="#f7f3fe"/></g><rect x="332.7" y="110.9" width="36.97" height="36.97" fill="#b691f5"/><g transform="translate(332.7,110.9) scale(1.8485) rotate(0)"><path d="M10 5L5 0L0 5L5 10L0 15L5 20L10 15L15 20L20 15L15 10L20 5L15 0L10 5Z" fill="#b79af9"/></g><rect x="369.67" y="110.9" width="36.97" height="36.97" fill="#c3abfa"/><g transform="translate(369.67,110.9) scale(1.8485) rotate(0)"><path d="M10 5L5 0L0 5L5 10L0 15L5 20L10 15L15 20L20 15L15 10L20 5L15 0L10 5Z" fill="#9c74f7"/></g><rect x="406.63" y="110.9" width="36.97" height="36.97" fill="#b199fb"/><g transform="translate(406.63,110.9) scale(1.8485) rotate(0)"><path d="M13 0H20V7L7 20H0V13L13 0Z" fill="#f1ecfe"/></g><rect x="0" y="147.86666666666667" width="36.96666666666667" height="36.96666666666667" fill="#ffffff"/><rect x="0" y="147.87" width="18.48" height="18.48" fill="#ffffff"/><g transform="translate(0,147.87) scale(0.924) rotate(0)"><rect width="2" height="20" fill="#ffffff"/><rect x="4" width="2" height="20" fill="#ffffff"/><rect x="8" width="2" height="20" fill="#ffffff"/><rect x="12" width="2" height="20" fill="#ffffff"/><rect x="16" width="2" height="20" fill="#ffffff"/></g><rect x="18.48" y="166.35" width="18.48" height="18.48" fill="#c3b0fc"/><g transform="translate(18.48,166.35) scale(0.924) rotate(0)"><path d="M5 0H10L5 5L0 10V5L5 0Z" fill="#ffffff"/><path d="M20 15V20H15L20 15Z" fill="#ffffff"/><path d="M20 5V10L15 15L10 20H5L20 5Z" fill="#ffffff"/><path d="M15 0H20L5 15.0002L0 20.0002V15.0002L15 0Z" fill="#ffffff"/></g><rect x="110.9" y="147.87" width="36.97" height="36.97" fill="#a87cf3"/><g transform="translate(110.9,147.87) scale(1.8485) rotate(0)"><path d="M5 0H10L5 5L0 10V5L5 0Z" fill="#ffffff"/><path d="M20 15V20H15L20 15Z" fill="#ffffff"/><path d="M20 5V10L15 15L10 20H5L20 5Z" fill="#ffffff"/><path d="M15 0H20L5 15.0002L0 20.0002V15.0002L15 0Z" fill="#ffffff"/></g><rect x="147.87" y="147.87" width="36.97" height="36.97" fill="#ffffff"/><g transform="translate(147.87,147.87) scale(1.8485) rotate(0)"><path d="M13 0H20V7L7 20H0V13L13 0Z" fill="#ffffff"/></g><rect x="184.83333333333334" y="147.86666666666667" width="36.96666666666667" height="36.96666666666667" fill="#ffffff"/><rect x="184.83" y="147.87" width="18.48" height="18.48" fill="#b699f9"/><g transform="translate(184.83,147.87) scale(0.924) rotate(0)"><rect width="2" height="20" fill="#b299fb"/><rect x="4" width="2" height="20" fill="#b299fb"/><rect x="8" width="2" height="20" fill="#b299fb"/><rect x="12" width="2" height="20" fill="#b299fb"/><rect x="16" width="2" height="20" fill="#b299fb"/></g><rect x="203.32" y="147.87" width="18.48" height="18.48" fill="#b48ff5"/><g transform="translate(203.32,147.87) scale(0.924) rotate(0)"><path d="M5 0H10L5 5L0 10V5L5 0Z" fill="#a682f8"/><path d="M20 15V20H15L20 15Z" fill="#a682f8"/><path d="M20 5V10L15 15L10 20H5L20 5Z" fill="#a682f8"/><path d="M15 0H20L5 15.0002L0 20.0002V15.0002L15 0Z" fill="#a682f8"/></g><rect x="221.8" y="147.87" width="36.97" height="36.97" fill="#ffffff"/><g transform="translate(221.8,147.87) scale(1.8485) rotate(0)"><path d="M5 0H10L5 5L0 10V5L5 0Z" fill="#ffffff"/><path d="M20 15V20H15L20 15Z" fill="#ffffff"/><path d="M20 5V10L15 15L10 20H5L20 5Z" fill="#ffffff"/><path d="M15 0H20L5 15.0002L0 20.0002V15.0002L15 0Z" fill="#ffffff"/></g><rect x="295.73333333333335" y="147.86666666666667" width="36.96666666666667" height="36.96666666666667" fill="#ffffff"/><rect x="295.73" y="147.87" width="18.48" height="18.48" fill="#ffffff"/><g transform="translate(295.73,147.87) scale(0.924) rotate(0)"><rect width="2" height="20" fill="#e1d8fd"/><rect x="4" width="2" height="20" fill="#e1d8fd"/><rect x="8" width="2" height="20" fill="#e1d8fd"/><rect x="12" width="2" height="20" fill="#e1d8fd"/><rect x="16" width="2" height="20" fill="#e1d8fd"/></g><rect x="295.73" y="166.35" width="18.48" height="18.48" fill="#eae2fd"/><g transform="translate(295.73,166.35) scale(0.924) rotate(0)"><rect width="2" height="20" fill="#bda8fb"/><rect x="4" width="2" height="20" fill="#bda8fb"/><rect x="8" width="2" height="20" fill="#bda8fb"/><rect x="12" width="2" height="20" fill="#bda8fb"/><rect x="16" width="2" height="20" fill="#bda8fb"/></g><rect x="314.22" y="166.35" width="18.48" height="18.48" fill="#ffffff"/><g transform="translate(314.22,166.35) scale(0.924) rotate(0)"><path d="M10 5L5 0L0 5L5 10L0 15L5 20L10 15L15 20L20 15L15 10L20 5L15 0L10 5Z" fill="#996ff7"/></g><rect x="369.67" y="147.87" width="36.97" height="36.97" fill="#ffffff"/><g transform="translate(369.67,147.87) scale(1.8485) rotate(0)"><rect width="2" height="20" fill="#ffffff"/><rect x="4" width="2" height="20" fill="#ffffff"/><rect x="8" width="2" height="20" fill="#ffffff"/><rect x="12" width="2" height="20" fill="#ffffff"/><rect x="16" width="2" height="20" fill="#ffffff"/></g><rect x="406.6333333333333" y="147.86666666666667" width="36.96666666666667" height="36.96666666666667" fill="#ffffff"/><rect x="406.63" y="147.87" width="18.48" height="18.48" fill="#d3c5fc"/><g transform="translate(406.63,147.87) scale(0.924) rotate(0)"><path d="M13 0H20V7L7 20H0V13L13 0Z" fill="#9b69f1"/></g><rect x="406.63" y="166.35" width="18.48" height="18.48" fill="#f1eafd"/><g transform="translate(406.63,166.35) scale(0.924) rotate(0)"><path d="M5 0H10L5 5L0 10V5L5 0Z" fill="#b8a1fb"/><path d="M20 15V20H15L20 15Z" fill="#b8a1fb"/><path d="M20 5V10L15 15L10 20H5L20 5Z" fill="#b8a1fb"/><path d="M15 0H20L5 15.0002L0 20.0002V15.0002L15 0Z" fill="#b8a1fb"/></g><rect x="0" y="184.83" width="36.97" height="36.97" fill="#dbcafa"/><g transform="translate(0,184.83) scale(1.8485) rotate(0)"><path d="M5 0H10L5 5L0 10V5L5 0Z" fill="#dacffd"/><path d="M20 15V20H15L20 15Z" fill="#dacffd"/><path d="M20 5V10L15 15L10 20H5L20 5Z" fill="#dacffd"/><path d="M15 0H20L5 15.0002L0 20.0002V15.0002L15 0Z" fill="#dacffd"/></g><rect x="36.96666666666667" y="184.83333333333334" width="36.96666666666667" height="36.96666666666667" fill="#ffffff"/><rect x="36.97" y="203.32" width="18.48" height="18.48" fill="#dcd1fd"/><g transform="translate(36.97,203.32) scale(0.924) rotate(0)"><path d="M5 0H10L5 5L0 10V5L5 0Z" fill="#ffffff"/><path d="M20 15V20H15L20 15Z" fill="#ffffff"/><path d="M20 5V10L15 15L10 20H5L20 5Z" fill="#ffffff"/><path d="M15 0H20L5 15.0002L0 20.0002V15.0002L15 0Z" fill="#ffffff"/></g><rect x="55.45" y="203.32" width="18.48" height="18.48" fill="#b49cfb"/><g transform="translate(55.45,203.32) scale(0.924) rotate(0)"><path d="M13 0H20V7L7 20H0V13L13 0Z" fill="#cdb9fb"/></g><rect x="73.93333333333334" y="184.83333333333334" width="36.96666666666667" height="36.96666666666667" fill="#ffffff"/><rect x="92.42" y="203.32" width="18.48" height="18.48" fill="#f1edfe"/><g transform="translate(92.42,203.32) scale(0.924) rotate(0)"><path d="M13 0H20V7L7 20H0V13L13 0Z" fill="#ffffff"/></g><rect x="110.9" y="184.83333333333334" width="36.96666666666667" height="36.96666666666667" fill="#ffffff"/><rect x="110.9" y="184.83" width="18.48" height="18.48" fill="#f1ecfe"/><g transform="translate(110.9,184.83) scale(0.924) rotate(0)"><path d="M5 0H10L5 5L0 10V5L5 0Z" fill="#ffffff"/><path d="M20 15V20H15L20 15Z" fill="#ffffff"/><path d="M20 5V10L15 15L10 20H5L20 5Z" fill="#ffffff"/><path d="M15 0H20L5 15.0002L0 20.0002V15.0002L15 0Z" fill="#ffffff"/></g><rect x="129.38" y="184.83" width="18.48" height="18.48" fill="#ffffff"/><g transform="translate(129.38,184.83) scale(0.924) rotate(0)"><path d="M10 0H20V10L10 20H0V10L10 0Z" fill="#ae8df9"/></g><rect x="110.9" y="203.32" width="18.48" height="18.48" fill="#ffffff"/><g transform="translate(110.9,203.32) scale(0.924) rotate(0)"><path d="M5 0H10L5 5L0 10V5L5 0Z" fill="#ebe4fe"/><path d="M20 15V20H15L20 15Z" fill="#ebe4fe"/><path d="M20 5V10L15 15L10 20H5L20 5Z" fill="#ebe4fe"/><path d="M15 0H20L5 15.0002L0 20.0002V15.0002L15 0Z" fill="#ebe4fe"/></g><rect x="129.38" y="203.32" width="18.48" height="18.48" fill="#dccafa"/><g transform="translate(129.38,203.32) scale(0.924) rotate(0)"><path d="M10 5L5 0L0 5L5 10L0 15L5 20L10 15L15 20L20 15L15 10L20 5L15 0L10 5Z" fill="#ffffff"/></g><rect x="147.86666666666667" y="184.83333333333334" width="36.96666666666667" height="36.96666666666667" fill="#ffffff"/><rect x="147.87" y="184.83" width="18.48" height="18.48" fill="#b49cfb"/><g transform="translate(147.87,184.83) scale(0.924) rotate(0)"><path d="M10 5L5 0L0 5L5 10L0 15L5 20L10 15L15 20L20 15L15 10L20 5L15 0L10 5Z" fill="#dac7fa"/></g><rect x="166.35" y="203.32" width="18.48" height="18.48" fill="#ffffff"/><g transform="translate(166.35,203.32) scale(0.924) rotate(0)"><rect width="2" height="20" fill="#bb98f6"/><rect x="4" width="2" height="20" fill="#bb98f6"/><rect x="8" width="2" height="20" fill="#bb98f6"/><rect x="12" width="2" height="20" fill="#bb98f6"/><rect x="16" width="2" height="20" fill="#bb98f6"/></g><rect x="184.83333333333334" y="184.83333333333334" width="36.96666666666667" height="36.96666666666667" fill="#ffffff"/><rect x="184.83" y="184.83" width="18.48" height="18.48" fill="#ffffff"/><g transform="translate(184.83,184.83) scale(0.924) rotate(0)"><path d="M5 0H10L5 5L0 10V5L5 0Z" fill="#c4acfa"/><path d="M20 15V20H15L20 15Z" fill="#c4acfa"/><path d="M20 5V10L15 15L10 20H5L20 5Z" fill="#c4acfa"/><path d="M15 0H20L5 15.0002L0 20.0002V15.0002L15 0Z" fill="#c4acfa"/></g><rect x="203.32" y="184.83" width="18.48" height="18.48" fill="#ffffff"/><g transform="translate(203.32,184.83) scale(0.924) rotate(0)"><path d="M10 5L5 0L0 5L5 10L0 15L5 20L10 15L15 20L20 15L15 10L20 5L15 0L10 5Z" fill="#ffffff"/></g><rect x="184.83" y="203.32" width="18.48" height="18.48" fill="#ffffff"/><g transform="translate(184.83,203.32) scale(0.924) rotate(0)"><path d="M10 0H20V10L10 20H0V10L10 0Z" fill="#a581f8"/></g><rect x="203.32" y="203.32" width="18.48" height="18.48" fill="#a17bf8"/><g transform="translate(203.32,203.32) scale(0.924) rotate(0)"><path d="M10 0H20V10L10 20H0V10L10 0Z" fill="#eee6fd"/></g><rect x="295.73333333333335" y="184.83333333333334" width="36.96666666666667" height="36.96666666666667" fill="#ffffff"/><rect x="295.73" y="184.83" width="18.48" height="18.48" fill="#ffffff"/><g transform="translate(295.73,184.83) scale(0.924) rotate(0)"><path d="M5 0H10L5 5L0 10V5L5 0Z" fill="#a581f8"/><path d="M20 15V20H15L20 15Z" fill="#a581f8"/><path d="M20 5V10L15 15L10 20H5L20 5Z" fill="#a581f8"/><path d="M15 0H20L5 15.0002L0 20.0002V15.0002L15 0Z" fill="#a581f8"/></g><rect x="314.22" y="184.83" width="18.48" height="18.48" fill="#ffffff"/><g transform="translate(314.22,184.83) scale(0.924) rotate(0)"><path d="M10 5L5 0L0 5L5 10L0 15L5 20L10 15L15 20L20 15L15 10L20 5L15 0L10 5Z" fill="#c6a9f7"/></g><rect x="295.73" y="203.32" width="18.48" height="18.48" fill="#f9f6ff"/><g transform="translate(295.73,203.32) scale(0.924) rotate(0)"><rect width="2" height="20" fill="#fbf9ff"/><rect x="4" width="2" height="20" fill="#fbf9ff"/><rect x="8" width="2" height="20" fill="#fbf9ff"/><rect x="12" width="2" height="20" fill="#fbf9ff"/><rect x="16" width="2" height="20" fill="#fbf9ff"/></g><rect x="314.22" y="203.32" width="18.48" height="18.48" fill="#ffffff"/><g transform="translate(314.22,203.32) scale(0.924) rotate(0)"><path d="M5 0H10L5 5L0 10V5L5 0Z" fill="#ddcffc"/><path d="M20 15V20H15L20 15Z" fill="#ddcffc"/><path d="M20 5V10L15 15L10 20H5L20 5Z" fill="#ddcffc"/><path d="M15 0H20L5 15.0002L0 20.0002V15.0002L15 0Z" fill="#ddcffc"/></g><rect x="332.70000000000005" y="184.83333333333334" width="36.96666666666667" height="36.96666666666667" fill="#ffffff"/><rect x="332.7" y="184.83" width="18.48" height="18.48" fill="#b198fb"/><g transform="translate(332.7,184.83) scale(0.924) rotate(0)"><path d="M10 5L5 0L0 5L5 10L0 15L5 20L10 15L15 20L20 15L15 10L20 5L15 0L10 5Z" fill="#f1ecfe"/></g><rect x="351.18" y="184.83" width="18.48" height="18.48" fill="#ffffff"/><g transform="translate(351.18,184.83) scale(0.924) rotate(0)"><path d="M13 0H20V7L7 20H0V13L13 0Z" fill="#884bef"/></g><rect x="332.7" y="203.32" width="18.48" height="18.48" fill="#efe9fe"/><g transform="translate(332.7,203.32) scale(0.924) rotate(0)"><path d="M13 0H20V7L7 20H0V13L13 0Z" fill="#966cf7"/></g><rect x="36.97" y="221.8" width="36.97" height="36.97" fill="#ffffff"/><g transform="translate(36.97,221.8) scale(1.8485) rotate(0)"><rect width="2" height="20" fill="#dacefd"/><rect x="4" width="2" height="20" fill="#dacefd"/><rect x="8" width="2" height="20" fill="#dacefd"/><rect x="12" width="2" height="20" fill="#dacefd"/><rect x="16" width="2" height="20" fill="#dacefd"/></g><rect x="73.93" y="221.8" width="36.97" height="36.97" fill="#ccbbfc"/><g transform="translate(73.93,221.8) scale(1.8485) rotate(0)"><path d="M13 0H20V7L7 20H0V13L13 0Z" fill="#a885f8"/></g><rect x="110.9" y="221.8" width="36.96666666666667" height="36.96666666666667" fill="#ffffff"/><rect x="110.9" y="221.8" width="18.48" height="18.48" fill="#d5c0f9"/><g transform="translate(110.9,221.8) scale(0.924) rotate(0)"><path d="M10 0H20V10L10 20H0V10L10 0Z" fill="#ffffff"/></g><rect x="110.9" y="240.28" width="18.48" height="18.48" fill="#d8c9fc"/><g transform="translate(110.9,240.28) scale(0.924) rotate(0)"><path d="M5 0H10L5 5L0 10V5L5 0Z" fill="#ffffff"/><path d="M20 15V20H15L20 15Z" fill="#ffffff"/><path d="M20 5V10L15 15L10 20H5L20 5Z" fill="#ffffff"/><path d="M15 0H20L5 15.0002L0 20.0002V15.0002L15 0Z" fill="#ffffff"/></g><rect x="129.38" y="240.28" width="18.48" height="18.48" fill="#ffffff"/><g transform="translate(129.38,240.28) scale(0.924) rotate(0)"><path d="M5 0H10L5 5L0 10V5L5 0Z" fill="#ffffff"/><path d="M20 15V20H15L20 15Z" fill="#ffffff"/><path d="M20 5V10L15 15L10 20H5L20 5Z" fill="#ffffff"/><path d="M15 0H20L5 15.0002L0 20.0002V15.0002L15 0Z" fill="#ffffff"/></g><rect x="147.87" y="221.8" width="36.97" height="36.97" fill="#ffffff"/><g transform="translate(147.87,221.8) scale(1.8485) rotate(0)"><path d="M13 0H20V7L7 20H0V13L13 0Z" fill="#8e60f6"/></g><rect x="184.83333333333334" y="221.8" width="36.96666666666667" height="36.96666666666667" fill="#ffffff"/><rect x="203.32" y="240.28" width="18.48" height="18.48" fill="#dfd5fd"/><g transform="translate(203.32,240.28) scale(0.924) rotate(0)"><path d="M10 5L5 0L0 5L5 10L0 15L5 20L10 15L15 20L20 15L15 10L20 5L15 0L10 5Z" fill="#e9defc"/></g><rect x="258.77" y="221.8" width="36.97" height="36.97" fill="#ffffff"/><g transform="translate(258.77,221.8) scale(1.8485) rotate(0)"><rect width="2" height="20" fill="#ffffff"/><rect x="4" width="2" height="20" fill="#ffffff"/><rect x="8" width="2" height="20" fill="#ffffff"/><rect x="12" width="2" height="20" fill="#ffffff"/><rect x="16" width="2" height="20" fill="#ffffff"/></g><rect x="295.73333333333335" y="221.8" width="36.96666666666667" height="36.96666666666667" fill="#ffffff"/><rect x="295.73" y="240.28" width="18.48" height="18.48" fill="#9970f7"/><g transform="translate(295.73,240.28) scale(0.924) rotate(0)"><path d="M10 5L5 0L0 5L5 10L0 15L5 20L10 15L15 20L20 15L15 10L20 5L15 0L10 5Z" fill="#cdb4f8"/></g><rect x="314.22" y="240.28" width="18.48" height="18.48" fill="#ffffff"/><g transform="translate(314.22,240.28) scale(0.924) rotate(0)"><path d="M13 0H20V7L7 20H0V13L13 0Z" fill="#ffffff"/></g><rect x="369.67" y="221.8" width="36.97" height="36.97" fill="#bc9af6"/><g transform="translate(369.67,221.8) scale(1.8485) rotate(0)"><rect width="2" height="20" fill="#bd9cf6"/><rect x="4" width="2" height="20" fill="#bd9cf6"/><rect x="8" width="2" height="20" fill="#bd9cf6"/><rect x="12" width="2" height="20" fill="#bd9cf6"/><rect x="16" width="2" height="20" fill="#bd9cf6"/></g><rect x="406.6333333333333" y="221.8" width="36.96666666666667" height="36.96666666666667" fill="#ffffff"/><rect x="406.63" y="221.8" width="18.48" height="18.48" fill="#cebefc"/><g transform="translate(406.63,221.8) scale(0.924) rotate(0)"><path d="M5 0H10L5 5L0 10V5L5 0Z" fill="#b7a1fb"/><path d="M20 15V20H15L20 15Z" fill="#b7a1fb"/><path d="M20 5V10L15 15L10 20H5L20 5Z" fill="#b7a1fb"/><path d="M15 0H20L5 15.0002L0 20.0002V15.0002L15 0Z" fill="#b7a1fb"/></g><rect x="406.63" y="240.28" width="18.48" height="18.48" fill="#f3edfd"/><g transform="translate(406.63,240.28) scale(0.924) rotate(0)"><path d="M10 5L5 0L0 5L5 10L0 15L5 20L10 15L15 20L20 15L15 10L20 5L15 0L10 5Z" fill="#8d5ef6"/></g><rect x="425.12" y="240.28" width="18.48" height="18.48" fill="#ffffff"/><g transform="translate(425.12,240.28) scale(0.924) rotate(0)"><path d="M10 0H20V10L10 20H0V10L10 0Z" fill="#d0bcfb"/></g><rect x="0" y="258.76666666666665" width="36.96666666666667" height="36.96666666666667" fill="#ffffff"/><rect x="0" y="258.77" width="18.48" height="18.48" fill="#c9aef8"/><g transform="translate(0,258.77) scale(0.924) rotate(0)"><path d="M10 0H20V10L10 20H0V10L10 0Z" fill="#ffffff"/></g><rect x="18.48" y="258.77" width="18.48" height="18.48" fill="#ffffff"/><g transform="translate(18.48,258.77) scale(0.924) rotate(0)"><path d="M10 5L5 0L0 5L5 10L0 15L5 20L10 15L15 20L20 15L15 10L20 5L15 0L10 5Z" fill="#ffffff"/></g><rect x="0" y="277.25" width="18.48" height="18.48" fill="#996ff7"/><g transform="translate(0,277.25) scale(0.924) rotate(0)"><path d="M13 0H20V7L7 20H0V13L13 0Z" fill="#a987f8"/></g><rect x="18.48" y="277.25" width="18.48" height="18.48" fill="#c1aefc"/><g transform="translate(18.48,277.25) scale(0.924) rotate(0)"><path d="M10 5L5 0L0 5L5 10L0 15L5 20L10 15L15 20L20 15L15 10L20 5L15 0L10 5Z" fill="#8c52ef"/></g><rect x="36.96666666666667" y="258.76666666666665" width="36.96666666666667" height="36.96666666666667" fill="#ffffff"/><rect x="55.45" y="277.25" width="18.48" height="18.48" fill="#ffffff"/><g transform="translate(55.45,277.25) scale(0.924) rotate(0)"><path d="M10 0H20V10L10 20H0V10L10 0Z" fill="#ffffff"/></g><rect x="73.93" y="258.77" width="36.97" height="36.97" fill="#ffffff"/><g transform="translate(73.93,258.77) scale(1.8485) rotate(0)"><path d="M5 0H10L5 5L0 10V5L5 0Z" fill="#a682f8"/><path d="M20 15V20H15L20 15Z" fill="#a682f8"/><path d="M20 5V10L15 15L10 20H5L20 5Z" fill="#a682f8"/><path d="M15 0H20L5 15.0002L0 20.0002V15.0002L15 0Z" fill="#a682f8"/></g><rect x="110.9" y="258.76666666666665" width="36.96666666666667" height="36.96666666666667" fill="#ffffff"/><rect x="129.38" y="277.25" width="18.48" height="18.48" fill="#996ff7"/><g transform="translate(129.38,277.25) scale(0.924) rotate(0)"><path d="M10 5L5 0L0 5L5 10L0 15L5 20L10 15L15 20L20 15L15 10L20 5L15 0L10 5Z" fill="#9c74f7"/></g><rect x="221.8" y="258.77" width="36.97" height="36.97" fill="#b097fb"/><g transform="translate(221.8,258.77) scale(1.8485) rotate(0)"><path d="M5 0H10L5 5L0 10V5L5 0Z" fill="#c8b7fc"/><path d="M20 15V20H15L20 15Z" fill="#c8b7fc"/><path d="M20 5V10L15 15L10 20H5L20 5Z" fill="#c8b7fc"/><path d="M15 0H20L5 15.0002L0 20.0002V15.0002L15 0Z" fill="#c8b7fc"/></g><rect x="258.76666666666665" y="258.76666666666665" width="36.96666666666667" height="36.96666666666667" fill="#ffffff"/><rect x="258.77" y="258.77" width="18.48" height="18.48" fill="#9b73f7"/><g transform="translate(258.77,258.77) scale(0.924) rotate(0)"><path d="M13 0H20V7L7 20H0V13L13 0Z" fill="#c0a6fa"/></g><rect x="277.25" y="258.77" width="18.48" height="18.48" fill="#b89cfa"/><g transform="translate(277.25,258.77) scale(0.924) rotate(0)"><path d="M10 5L5 0L0 5L5 10L0 15L5 20L10 15L15 20L20 15L15 10L20 5L15 0L10 5Z" fill="#ffffff"/></g><rect x="258.77" y="277.25" width="18.48" height="18.48" fill="#b79af9"/><g transform="translate(258.77,277.25) scale(0.924) rotate(0)"><rect width="2" height="20" fill="#ae8df9"/><rect x="4" width="2" height="20" fill="#ae8df9"/><rect x="8" width="2" height="20" fill="#ae8df9"/><rect x="12" width="2" height="20" fill="#ae8df9"/><rect x="16" width="2" height="20" fill="#ae8df9"/></g><rect x="332.7" y="258.77" width="36.97" height="36.97" fill="#ffffff"/><g transform="translate(332.7,258.77) scale(1.8485) rotate(0)"><path d="M10 5L5 0L0 5L5 10L0 15L5 20L10 15L15 20L20 15L15 10L20 5L15 0L10 5Z" fill="#d4c2fc"/></g><rect x="369.67" y="258.77" width="36.97" height="36.97" fill="#ffffff"/><g transform="translate(369.67,258.77) scale(1.8485) rotate(0)"><rect width="2" height="20" fill="#9966f1"/><rect x="4" width="2" height="20" fill="#9966f1"/><rect x="8" width="2" height="20" fill="#9966f1"/><rect x="12" width="2" height="20" fill="#9966f1"/><rect x="16" width="2" height="20" fill="#9966f1"/></g><rect x="406.6333333333333" y="258.76666666666665" width="36.96666666666667" height="36.96666666666667" fill="#ffffff"/><rect x="425.12" y="258.77" width="18.48" height="18.48" fill="#a986f8"/><g transform="translate(425.12,258.77) scale(0.924) rotate(0)"><path d="M10 5L5 0L0 5L5 10L0 15L5 20L10 15L15 20L20 15L15 10L20 5L15 0L10 5Z" fill="#bea4fa"/></g><rect x="406.63" y="277.25" width="18.48" height="18.48" fill="#ede7fe"/><g transform="translate(406.63,277.25) scale(0.924) rotate(0)"><path d="M13 0H20V7L7 20H0V13L13 0Z" fill="#bba6fb"/></g><rect x="36.97" y="295.73" width="36.97" height="36.97" fill="#ffffff"/><g transform="translate(36.97,295.73) scale(1.8485) rotate(0)"><rect width="2" height="20" fill="#ae94fa"/><rect x="4" width="2" height="20" fill="#ae94fa"/><rect x="8" width="2" height="20" fill="#ae94fa"/><rect x="12" width="2" height="20" fill="#ae94fa"/><rect x="16" width="2" height="20" fill="#ae94fa"/></g><rect x="73.93" y="295.73" width="36.97" height="36.97" fill="#ffffff"/><g transform="translate(73.93,295.73) scale(1.8485) rotate(0)"><rect width="2" height="20" fill="#eadffc"/><rect x="4" width="2" height="20" fill="#eadffc"/><rect x="8" width="2" height="20" fill="#eadffc"/><rect x="12" width="2" height="20" fill="#eadffc"/><rect x="16" width="2" height="20" fill="#eadffc"/></g><rect x="110.9" y="295.73" width="36.97" height="36.97" fill="#ffffff"/><g transform="translate(110.9,295.73) scale(1.8485) rotate(0)"><path d="M5 0H10L5 5L0 10V5L5 0Z" fill="#a87cf3"/><path d="M20 15V20H15L20 15Z" fill="#a87cf3"/><path d="M20 5V10L15 15L10 20H5L20 5Z" fill="#a87cf3"/><path d="M15 0H20L5 15.0002L0 20.0002V15.0002L15 0Z" fill="#a87cf3"/></g><rect x="184.83333333333334" y="295.73333333333335" width="36.96666666666667" height="36.96666666666667" fill="#ffffff"/><rect x="203.32" y="314.22" width="18.48" height="18.48" fill="#d4bff9"/><g transform="translate(203.32,314.22) scale(0.924) rotate(0)"><path d="M10 5L5 0L0 5L5 10L0 15L5 20L10 15L15 20L20 15L15 10L20 5L15 0L10 5Z" fill="#d8c4fa"/></g><rect x="221.8" y="295.73" width="36.97" height="36.97" fill="#ffffff"/><g transform="translate(221.8,295.73) scale(1.8485) rotate(0)"><path d="M10 0H20V10L10 20H0V10L10 0Z" fill="#baa4fb"/></g><rect x="258.77" y="295.73" width="36.97" height="36.97" fill="#e1d4fd"/><g transform="translate(258.77,295.73) scale(1.8485) rotate(0)"><path d="M10 0H20V10L10 20H0V10L10 0Z" fill="#ffffff"/></g><rect x="295.73333333333335" y="295.73333333333335" width="36.96666666666667" height="36.96666666666667" fill="#ffffff"/><rect x="295.73" y="295.73" width="18.48" height="18.48" fill="#f3eefd"/><g transform="translate(295.73,295.73) scale(0.924) rotate(0)"><rect width="2" height="20" fill="#ffffff"/><rect x="4" width="2" height="20" fill="#ffffff"/><rect x="8" width="2" height="20" fill="#ffffff"/><rect x="12" width="2" height="20" fill="#ffffff"/><rect x="16" width="2" height="20" fill="#ffffff"/></g><rect x="314.22" y="295.73" width="18.48" height="18.48" fill="#ab80f3"/><g transform="translate(314.22,295.73) scale(0.924) rotate(0)"><path d="M13 0H20V7L7 20H0V13L13 0Z" fill="#ffffff"/></g><rect x="314.22" y="314.22" width="18.48" height="18.48" fill="#ffffff"/><g transform="translate(314.22,314.22) scale(0.924) rotate(0)"><rect width="2" height="20" fill="#ffffff"/><rect x="4" width="2" height="20" fill="#ffffff"/><rect x="8" width="2" height="20" fill="#ffffff"/><rect x="12" width="2" height="20" fill="#ffffff"/><rect x="16" width="2" height="20" fill="#ffffff"/></g><rect x="332.7" y="295.73" width="36.97" height="36.97" fill="#c1a2f7"/><g transform="translate(332.7,295.73) scale(1.8485) rotate(0)"><path d="M10 5L5 0L0 5L5 10L0 15L5 20L10 15L15 20L20 15L15 10L20 5L15 0L10 5Z" fill="#ad84f4"/></g><rect x="369.6666666666667" y="295.73333333333335" width="36.96666666666667" height="36.96666666666667" fill="#ffffff"/><rect x="388.15" y="314.22" width="18.48" height="18.48" fill="#ffffff"/><g transform="translate(388.15,314.22) scale(0.924) rotate(0)"><path d="M13 0H20V7L7 20H0V13L13 0Z" fill="#ffffff"/></g><rect x="406.6333333333333" y="295.73333333333335" width="36.96666666666667" height="36.96666666666667" fill="#ffffff"/><rect x="406.63" y="314.22" width="18.48" height="18.48" fill="#b29afb"/><g transform="translate(406.63,314.22) scale(0.924) rotate(0)"><path d="M5 0H10L5 5L0 10V5L5 0Z" fill="#ffffff"/><path d="M20 15V20H15L20 15Z" fill="#ffffff"/><path d="M20 5V10L15 15L10 20H5L20 5Z" fill="#ffffff"/><path d="M15 0H20L5 15.0002L0 20.0002V15.0002L15 0Z" fill="#ffffff"/></g><rect x="0" y="332.7" width="36.97" height="36.97" fill="#ffffff"/><g transform="translate(0,332.7) scale(1.8485) rotate(0)"><path d="M5 0H10L5 5L0 10V5L5 0Z" fill="#eadffc"/><path d="M20 15V20H15L20 15Z" fill="#eadffc"/><path d="M20 5V10L15 15L10 20H5L20 5Z" fill="#eadffc"/><path d="M15 0H20L5 15.0002L0 20.0002V15.0002L15 0Z" fill="#eadffc"/></g><rect x="36.97" y="332.7" width="36.97" height="36.97" fill="#ebe5fe"/><g transform="translate(36.97,332.7) scale(1.8485) rotate(0)"><rect width="2" height="20" fill="#c0a1f6"/><rect x="4" width="2" height="20" fill="#c0a1f6"/><rect x="8" width="2" height="20" fill="#c0a1f6"/><rect x="12" width="2" height="20" fill="#c0a1f6"/><rect x="16" width="2" height="20" fill="#c0a1f6"/></g><rect x="73.93333333333334" y="332.70000000000005" width="36.96666666666667" height="36.96666666666667" fill="#ffffff"/><rect x="92.42" y="332.7" width="18.48" height="18.48" fill="#c7b0fb"/><g transform="translate(92.42,332.7) scale(0.924) rotate(0)"><path d="M5 0H10L5 5L0 10V5L5 0Z" fill="#9b73f7"/><path d="M20 15V20H15L20 15Z" fill="#9b73f7"/><path d="M20 5V10L15 15L10 20H5L20 5Z" fill="#9b73f7"/><path d="M15 0H20L5 15.0002L0 20.0002V15.0002L15 0Z" fill="#9b73f7"/></g><rect x="73.93" y="351.18" width="18.48" height="18.48" fill="#af86f4"/><g transform="translate(73.93,351.18) scale(0.924) rotate(0)"><path d="M10 5L5 0L0 5L5 10L0 15L5 20L10 15L15 20L20 15L15 10L20 5L15 0L10 5Z" fill="#ffffff"/></g><rect x="92.42" y="351.18" width="18.48" height="18.48" fill="#ffffff"/><g transform="translate(92.42,351.18) scale(0.924) rotate(0)"><path d="M10 0H20V10L10 20H0V10L10 0Z" fill="#d7c7fc"/></g><rect x="110.9" y="332.70000000000005" width="36.96666666666667" height="36.96666666666667" fill="#ffffff"/><rect x="110.9" y="332.7" width="18.48" height="18.48" fill="#c9adf8"/><g transform="translate(110.9,332.7) scale(0.924) rotate(0)"><rect width="2" height="20" fill="#ffffff"/><rect x="4" width="2" height="20" fill="#ffffff"/><rect x="8" width="2" height="20" fill="#ffffff"/><rect x="12" width="2" height="20" fill="#ffffff"/><rect x="16" width="2" height="20" fill="#ffffff"/></g><rect x="110.9" y="351.18" width="18.48" height="18.48" fill="#be9df6"/><g transform="translate(110.9,351.18) scale(0.924) rotate(0)"><rect width="2" height="20" fill="#ffffff"/><rect x="4" width="2" height="20" fill="#ffffff"/><rect x="8" width="2" height="20" fill="#ffffff"/><rect x="12" width="2" height="20" fill="#ffffff"/><rect x="16" width="2" height="20" fill="#ffffff"/></g><rect x="129.38" y="351.18" width="18.48" height="18.48" fill="#ffffff"/><g transform="translate(129.38,351.18) scale(0.924) rotate(0)"><rect width="2" height="20" fill="#ffffff"/><rect x="4" width="2" height="20" fill="#ffffff"/><rect x="8" width="2" height="20" fill="#ffffff"/><rect x="12" width="2" height="20" fill="#ffffff"/><rect x="16" width="2" height="20" fill="#ffffff"/></g><rect x="147.86666666666667" y="332.70000000000005" width="36.96666666666667" height="36.96666666666667" fill="#ffffff"/><rect x="147.87" y="332.7" width="18.48" height="18.48" fill="#ffffff"/><g transform="translate(147.87,332.7) scale(0.924) rotate(0)"><path d="M10 0H20V10L10 20H0V10L10 0Z" fill="#ffffff"/></g><rect x="166.35" y="332.7" width="18.48" height="18.48" fill="#d9c9fc"/><g transform="translate(166.35,332.7) scale(0.924) rotate(0)"><path d="M10 0H20V10L10 20H0V10L10 0Z" fill="#9c73f7"/></g><rect x="147.87" y="351.18" width="18.48" height="18.48" fill="#8a4fef"/><g transform="translate(147.87,351.18) scale(0.924) rotate(0)"><path d="M5 0H10L5 5L0 10V5L5 0Z" fill="#ffffff"/><path d="M20 15V20H15L20 15Z" fill="#ffffff"/><path d="M20 5V10L15 15L10 20H5L20 5Z" fill="#ffffff"/><path d="M15 0H20L5 15.0002L0 20.0002V15.0002L15 0Z" fill="#ffffff"/></g><rect x="184.83333333333334" y="332.70000000000005" width="36.96666666666667" height="36.96666666666667" fill="#ffffff"/><rect x="184.83" y="332.7" width="18.48" height="18.48" fill="#d8cbfd"/><g transform="translate(184.83,332.7) scale(0.924) rotate(0)"><path d="M10 5L5 0L0 5L5 10L0 15L5 20L10 15L15 20L20 15L15 10L20 5L15 0L10 5Z" fill="#dcd1fd"/></g><rect x="203.32" y="332.7" width="18.48" height="18.48" fill="#c9b8fc"/><g transform="translate(203.32,332.7) scale(0.924) rotate(0)"><path d="M5 0H10L5 5L0 10V5L5 0Z" fill="#9864f1"/><path d="M20 15V20H15L20 15Z" fill="#9864f1"/><path d="M20 5V10L15 15L10 20H5L20 5Z" fill="#9864f1"/><path d="M15 0H20L5 15.0002L0 20.0002V15.0002L15 0Z" fill="#9864f1"/></g><rect x="184.83" y="351.18" width="18.48" height="18.48" fill="#fdfcff"/><g transform="translate(184.83,351.18) scale(0.924) rotate(0)"><path d="M10 5L5 0L0 5L5 10L0 15L5 20L10 15L15 20L20 15L15 10L20 5L15 0L10 5Z" fill="#cfc0fc"/></g><rect x="221.8" y="332.70000000000005" width="36.96666666666667" height="36.96666666666667" fill="#ffffff"/><rect x="221.8" y="332.7" width="18.48" height="18.48" fill="#ffffff"/><g transform="translate(221.8,332.7) scale(0.924) rotate(0)"><rect width="2" height="20" fill="#ffffff"/><rect x="4" width="2" height="20" fill="#ffffff"/><rect x="8" width="2" height="20" fill="#ffffff"/><rect x="12" width="2" height="20" fill="#ffffff"/><rect x="16" width="2" height="20" fill="#ffffff"/></g><rect x="240.28" y="332.7" width="18.48" height="18.48" fill="#ccbcfc"/><g transform="translate(240.28,332.7) scale(0.924) rotate(0)"><path d="M13 0H20V7L7 20H0V13L13 0Z" fill="#f4effd"/></g><rect x="240.28" y="351.18" width="18.48" height="18.48" fill="#ffffff"/><g transform="translate(240.28,351.18) scale(0.924) rotate(0)"><path d="M13 0H20V7L7 20H0V13L13 0Z" fill="#ffffff"/></g><rect x="258.76666666666665" y="332.70000000000005" width="36.96666666666667" height="36.96666666666667" fill="#ffffff"/><rect x="258.77" y="332.7" width="18.48" height="18.48" fill="#ddcffc"/><g transform="translate(258.77,332.7) scale(0.924) rotate(0)"><path d="M13 0H20V7L7 20H0V13L13 0Z" fill="#ffffff"/></g><rect x="277.25" y="351.18" width="18.48" height="18.48" fill="#ffffff"/><g transform="translate(277.25,351.18) scale(0.924) rotate(0)"><rect width="2" height="20" fill="#ffffff"/><rect x="4" width="2" height="20" fill="#ffffff"/><rect x="8" width="2" height="20" fill="#ffffff"/><rect x="12" width="2" height="20" fill="#ffffff"/><rect x="16" width="2" height="20" fill="#ffffff"/></g><rect x="369.6666666666667" y="332.70000000000005" width="36.96666666666667" height="36.96666666666667" fill="#ffffff"/><rect x="388.15" y="332.7" width="18.48" height="18.48" fill="#bc9bf6"/><g transform="translate(388.15,332.7) scale(0.924) rotate(0)"><path d="M13 0H20V7L7 20H0V13L13 0Z" fill="#d9c9fc"/></g><rect x="369.67" y="351.18" width="18.48" height="18.48" fill="#ffffff"/><g transform="translate(369.67,351.18) scale(0.924) rotate(0)"><path d="M13 0H20V7L7 20H0V13L13 0Z" fill="#e1d5fd"/></g><rect x="388.15" y="351.18" width="18.48" height="18.48" fill="#f5f2fe"/><g transform="translate(388.15,351.18) scale(0.924) rotate(0)"><path d="M10 5L5 0L0 5L5 10L0 15L5 20L10 15L15 20L20 15L15 10L20 5L15 0L10 5Z" fill="#f5f2fe"/></g><rect x="406.63" y="332.7" width="36.97" height="36.97" fill="#ffffff"/><g transform="translate(406.63,332.7) scale(1.8485) rotate(0)"><path d="M10 5L5 0L0 5L5 10L0 15L5 20L10 15L15 20L20 15L15 10L20 5L15 0L10 5Z" fill="#ffffff"/></g><rect x="0" y="369.6666666666667" width="36.96666666666667" height="36.96666666666667" fill="#ffffff"/><rect x="0" y="369.67" width="18.48" height="18.48" fill="#c5b3fc"/><g transform="translate(0,369.67) scale(0.924) rotate(0)"><path d="M5 0H10L5 5L0 10V5L5 0Z" fill="#ffffff"/><path d="M20 15V20H15L20 15Z" fill="#ffffff"/><path d="M20 5V10L15 15L10 20H5L20 5Z" fill="#ffffff"/><path d="M15 0H20L5 15.0002L0 20.0002V15.0002L15 0Z" fill="#ffffff"/></g><rect x="18.48" y="369.67" width="18.48" height="18.48" fill="#ded1fc"/><g transform="translate(18.48,369.67) scale(0.924) rotate(0)"><path d="M5 0H10L5 5L0 10V5L5 0Z" fill="#ffffff"/><path d="M20 15V20H15L20 15Z" fill="#ffffff"/><path d="M20 5V10L15 15L10 20H5L20 5Z" fill="#ffffff"/><path d="M15 0H20L5 15.0002L0 20.0002V15.0002L15 0Z" fill="#ffffff"/></g><rect x="0" y="388.15" width="18.48" height="18.48" fill="#ffffff"/><g transform="translate(0,388.15) scale(0.924) rotate(0)"><path d="M13 0H20V7L7 20H0V13L13 0Z" fill="#ffffff"/></g><rect x="18.48" y="388.15" width="18.48" height="18.48" fill="#faf7ff"/><g transform="translate(18.48,388.15) scale(0.924) rotate(0)"><path d="M13 0H20V7L7 20H0V13L13 0Z" fill="#a87cf3"/></g><rect x="110.9" y="369.67" width="36.97" height="36.97" fill="#ffffff"/><g transform="translate(110.9,369.67) scale(1.8485) rotate(0)"><path d="M13 0H20V7L7 20H0V13L13 0Z" fill="#b69ffb"/></g><rect x="147.86666666666667" y="369.6666666666667" width="36.96666666666667" height="36.96666666666667" fill="#ffffff"/><rect x="147.87" y="369.67" width="18.48" height="18.48" fill="#ffffff"/><g transform="translate(147.87,369.67) scale(0.924) rotate(0)"><path d="M10 5L5 0L0 5L5 10L0 15L5 20L10 15L15 20L20 15L15 10L20 5L15 0L10 5Z" fill="#f9f7ff"/></g><rect x="184.83" y="369.67" width="36.97" height="36.97" fill="#ffffff"/><g transform="translate(184.83,369.67) scale(1.8485) rotate(0)"><path d="M13 0H20V7L7 20H0V13L13 0Z" fill="#8d54ef"/></g><rect x="332.7" y="369.67" width="36.97" height="36.97" fill="#ffffff"/><g transform="translate(332.7,369.67) scale(1.8485) rotate(0)"><path d="M10 0H20V10L10 20H0V10L10 0Z" fill="#e0d1fb"/></g><rect x="36.97" y="406.63" width="36.97" height="36.97" fill="#e0d6fd"/><g transform="translate(36.97,406.63) scale(1.8485) rotate(0)"><path d="M13 0H20V7L7 20H0V13L13 0Z" fill="#f4f0fe"/></g><rect x="110.9" y="406.63" width="36.97" height="36.97" fill="#bda2fa"/><g transform="translate(110.9,406.63) scale(1.8485) rotate(0)"><path d="M5 0H10L5 5L0 10V5L5 0Z" fill="#ffffff"/><path d="M20 15V20H15L20 15Z" fill="#ffffff"/><path d="M20 5V10L15 15L10 20H5L20 5Z" fill="#ffffff"/><path d="M15 0H20L5 15.0002L0 20.0002V15.0002L15 0Z" fill="#ffffff"/></g><rect x="258.77" y="406.63" width="36.97" height="36.97" fill="#ffffff"/><g transform="translate(258.77,406.63) scale(1.8485) rotate(0)"><path d="M5 0H10L5 5L0 10V5L5 0Z" fill="#ffffff"/><path d="M20 15V20H15L20 15Z" fill="#ffffff"/><path d="M20 5V10L15 15L10 20H5L20 5Z" fill="#ffffff"/><path d="M15 0H20L5 15.0002L0 20.0002V15.0002L15 0Z" fill="#ffffff"/></g><rect x="295.73333333333335" y="406.6333333333333" width="36.96666666666667" height="36.96666666666667" fill="#ffffff"/><rect x="295.73" y="406.63" width="18.48" height="18.48" fill="#ffffff"/><g transform="translate(295.73,406.63) scale(0.924) rotate(0)"><path d="M10 5L5 0L0 5L5 10L0 15L5 20L10 15L15 20L20 15L15 10L20 5L15 0L10 5Z" fill="#fbfafe"/></g><rect x="314.22" y="406.63" width="18.48" height="18.48" fill="#fefeff"/><g transform="translate(314.22,406.63) scale(0.924) rotate(0)"><path d="M5 0H10L5 5L0 10V5L5 0Z" fill="#ebe1fc"/><path d="M20 15V20H15L20 15Z" fill="#ebe1fc"/><path d="M20 5V10L15 15L10 20H5L20 5Z" fill="#ebe1fc"/><path d="M15 0H20L5 15.0002L0 20.0002V15.0002L15 0Z" fill="#ebe1fc"/></g><rect x="295.73" y="425.12" width="18.48" height="18.48" fill="#c9b8fc"/><g transform="translate(295.73,425.12) scale(0.924) rotate(0)"><path d="M10 5L5 0L0 5L5 10L0 15L5 20L10 15L15 20L20 15L15 10L20 5L15 0L10 5Z" fill="#9a71f7"/></g><rect x="314.22" y="425.12" width="18.48" height="18.48" fill="#ffffff"/><g transform="translate(314.22,425.12) scale(0.924) rotate(0)"><rect width="2" height="20" fill="#ffffff"/><rect x="4" width="2" height="20" fill="#ffffff"/><rect x="8" width="2" height="20" fill="#ffffff"/><rect x="12" width="2" height="20" fill="#ffffff"/><rect x="16" width="2" height="20" fill="#ffffff"/></g></g></svg>